<mxfile host="65bd71144e">
    <diagram id="54JTJlZ18BZeYyPXppo0" name="Page-1">
        <mxGraphModel dx="3835" dy="2395" grid="1" gridSize="10" guides="1" tooltips="1" connect="1" arrows="1" fold="1" page="1" pageScale="1" pageWidth="1169" pageHeight="827" background="none" math="0" shadow="0">
            <root>
                <mxCell id="0"/>
                <mxCell id="1" parent="0"/>
                <mxCell id="luQNtdRatxjwP468r3o8-1" value="&lt;font style=&quot;&quot;&gt;user&lt;/font&gt;" style="rounded=0;whiteSpace=wrap;html=1;align=center;verticalAlign=middle;fontFamily=Helvetica;fontSize=12;shadow=0;glass=0;fillStyle=solid;labelBackgroundColor=none;textShadow=0;labelBorderColor=none;" parent="1" vertex="1">
                    <mxGeometry x="604.5" y="404" width="110" height="53" as="geometry"/>
                </mxCell>
                <mxCell id="luQNtdRatxjwP468r3o8-4" value="patient/customer" style="rounded=0;whiteSpace=wrap;html=1;align=center;verticalAlign=middle;fontFamily=Helvetica;fontSize=12;shadow=0;glass=0;fillStyle=solid;labelBackgroundColor=none;textShadow=0;labelBorderColor=none;" parent="1" vertex="1">
                    <mxGeometry x="16.379999999999995" y="596.5" width="110" height="53" as="geometry"/>
                </mxCell>
                <mxCell id="luQNtdRatxjwP468r3o8-6" value="admin" style="rounded=0;whiteSpace=wrap;html=1;shadow=0;glass=0;align=center;verticalAlign=middle;fontFamily=Helvetica;fontSize=12;fillStyle=solid;labelBackgroundColor=none;textShadow=0;labelBorderColor=none;" parent="1" vertex="1">
                    <mxGeometry x="262" y="406.5" width="110" height="53" as="geometry"/>
                </mxCell>
                <mxCell id="luQNtdRatxjwP468r3o8-7" value="pharmacist" style="rounded=0;whiteSpace=wrap;html=1;align=center;verticalAlign=middle;fontFamily=Helvetica;fontSize=12;glass=0;shadow=0;labelBackgroundColor=none;textShadow=0;labelBorderColor=none;" parent="1" vertex="1">
                    <mxGeometry x="659" y="122" width="110" height="53" as="geometry"/>
                </mxCell>
                <mxCell id="luQNtdRatxjwP468r3o8-8" value="order" style="rounded=0;whiteSpace=wrap;html=1;align=center;verticalAlign=middle;fontFamily=Helvetica;fontSize=12;shadow=0;glass=0;fillStyle=solid;labelBackgroundColor=none;textShadow=0;labelBorderColor=none;" parent="1" vertex="1">
                    <mxGeometry x="615.76" y="642" width="110" height="53" as="geometry"/>
                </mxCell>
                <mxCell id="luQNtdRatxjwP468r3o8-10" value="order_item" style="rounded=0;whiteSpace=wrap;html=1;align=center;verticalAlign=middle;fontFamily=Helvetica;fontSize=12;shadow=0;glass=0;fillStyle=solid;labelBackgroundColor=none;textShadow=0;labelBorderColor=none;" parent="1" vertex="1">
                    <mxGeometry x="787.62" y="846.5" width="110" height="53" as="geometry"/>
                </mxCell>
                <mxCell id="luQNtdRatxjwP468r3o8-11" value="medication" style="rounded=0;whiteSpace=wrap;html=1;align=center;verticalAlign=middle;fontFamily=Helvetica;fontSize=12;shadow=0;glass=0;fillStyle=solid;labelBackgroundColor=none;textShadow=0;labelBorderColor=none;" parent="1" vertex="1">
                    <mxGeometry x="413.01" y="974.26" width="110" height="53" as="geometry"/>
                </mxCell>
                <mxCell id="luQNtdRatxjwP468r3o8-12" value="address" style="rounded=0;whiteSpace=wrap;html=1;align=center;verticalAlign=middle;fontFamily=Helvetica;fontSize=12;shadow=0;glass=0;fillStyle=solid;labelBackgroundColor=none;textShadow=0;labelBorderColor=none;" parent="1" vertex="1">
                    <mxGeometry x="874" y="327.75" width="110" height="53" as="geometry"/>
                </mxCell>
                <mxCell id="luQNtdRatxjwP468r3o8-14" value="prescription" style="rounded=0;whiteSpace=wrap;html=1;align=center;verticalAlign=middle;fontFamily=Helvetica;fontSize=12;shadow=0;glass=0;fillStyle=solid;labelBackgroundColor=none;textShadow=0;labelBorderColor=none;" parent="1" vertex="1">
                    <mxGeometry x="-101" y="844" width="110" height="53" as="geometry"/>
                </mxCell>
                <mxCell id="luQNtdRatxjwP468r3o8-15" value="&lt;u&gt;user_id&lt;/u&gt;" style="ellipse;whiteSpace=wrap;html=1;labelBackgroundColor=none;textShadow=0;shadow=0;labelBorderColor=none;" parent="1" vertex="1">
                    <mxGeometry x="569.5" y="256.5" width="50" height="35" as="geometry"/>
                </mxCell>
                <mxCell id="luQNtdRatxjwP468r3o8-16" value="address_id" style="ellipse;whiteSpace=wrap;html=1;labelBackgroundColor=none;textShadow=0;shadow=0;labelBorderColor=none;" parent="1" vertex="1">
                    <mxGeometry x="532" y="301.5" width="77.5" height="20" as="geometry"/>
                </mxCell>
                <mxCell id="luQNtdRatxjwP468r3o8-17" value="full_name" style="ellipse;whiteSpace=wrap;html=1;labelBackgroundColor=none;textShadow=0;shadow=0;labelBorderColor=none;" parent="1" vertex="1">
                    <mxGeometry x="87" y="500" width="99" height="24" as="geometry"/>
                </mxCell>
                <mxCell id="luQNtdRatxjwP468r3o8-19" value="first_name" style="ellipse;whiteSpace=wrap;html=1;labelBackgroundColor=none;textShadow=0;shadow=0;labelBorderColor=none;" parent="1" vertex="1">
                    <mxGeometry x="46" y="459.5" width="67.5" height="25" as="geometry"/>
                </mxCell>
                <mxCell id="luQNtdRatxjwP468r3o8-20" value="last_name" style="ellipse;whiteSpace=wrap;html=1;labelBackgroundColor=none;textShadow=0;shadow=0;labelBorderColor=none;" parent="1" vertex="1">
                    <mxGeometry x="122" y="456.25" width="75" height="22.5" as="geometry"/>
                </mxCell>
                <mxCell id="luQNtdRatxjwP468r3o8-23" value="email" style="ellipse;whiteSpace=wrap;html=1;labelBackgroundColor=none;textShadow=0;shadow=0;labelBorderColor=none;" parent="1" vertex="1">
                    <mxGeometry x="676.26" y="258.87" width="68.24" height="30.25" as="geometry"/>
                </mxCell>
                <mxCell id="luQNtdRatxjwP468r3o8-24" value="password" style="ellipse;whiteSpace=wrap;html=1;labelBackgroundColor=none;textShadow=0;shadow=0;labelBorderColor=none;" parent="1" vertex="1">
                    <mxGeometry x="696.76" y="339" width="57.5" height="25" as="geometry"/>
                </mxCell>
                <mxCell id="luQNtdRatxjwP468r3o8-26" value="phone" style="ellipse;whiteSpace=wrap;html=1;labelBackgroundColor=none;textShadow=0;shadow=0;labelBorderColor=none;" parent="1" vertex="1">
                    <mxGeometry x="-50.5" y="565.75" width="65" height="20.75" as="geometry"/>
                </mxCell>
                <mxCell id="luQNtdRatxjwP468r3o8-30" value="" style="endArrow=none;html=1;rounded=0;exitX=0.5;exitY=0;exitDx=0;exitDy=0;entryX=0.723;entryY=0.994;entryDx=0;entryDy=0;entryPerimeter=0;labelBackgroundColor=none;textShadow=0;fontColor=#000000;shadow=0;labelBorderColor=none;" parent="1" source="luQNtdRatxjwP468r3o8-17" target="luQNtdRatxjwP468r3o8-19" edge="1">
                    <mxGeometry width="50" height="50" relative="1" as="geometry">
                        <mxPoint x="15.25" y="494.5" as="sourcePoint"/>
                        <mxPoint x="65.25" y="444.5" as="targetPoint"/>
                    </mxGeometry>
                </mxCell>
                <mxCell id="luQNtdRatxjwP468r3o8-31" value="" style="endArrow=none;html=1;rounded=0;exitX=0.488;exitY=-0.006;exitDx=0;exitDy=0;exitPerimeter=0;entryX=0;entryY=1;entryDx=0;entryDy=0;labelBackgroundColor=none;textShadow=0;fontColor=#000000;shadow=0;labelBorderColor=none;" parent="1" source="luQNtdRatxjwP468r3o8-17" target="luQNtdRatxjwP468r3o8-20" edge="1">
                    <mxGeometry width="50" height="50" relative="1" as="geometry">
                        <mxPoint x="175.25" y="474.5" as="sourcePoint"/>
                        <mxPoint x="145.25" y="444.5" as="targetPoint"/>
                    </mxGeometry>
                </mxCell>
                <mxCell id="luQNtdRatxjwP468r3o8-32" value="" style="endArrow=none;html=1;rounded=0;entryX=0.74;entryY=0.956;entryDx=0;entryDy=0;entryPerimeter=0;exitX=0.5;exitY=0;exitDx=0;exitDy=0;labelBackgroundColor=none;textShadow=0;fontColor=#000000;shadow=0;labelBorderColor=none;" parent="1" source="luQNtdRatxjwP468r3o8-1" target="luQNtdRatxjwP468r3o8-15" edge="1">
                    <mxGeometry width="50" height="50" relative="1" as="geometry">
                        <mxPoint x="625.5" y="403" as="sourcePoint"/>
                        <mxPoint x="604.5" y="364" as="targetPoint"/>
                    </mxGeometry>
                </mxCell>
                <mxCell id="luQNtdRatxjwP468r3o8-33" value="" style="endArrow=none;html=1;rounded=0;exitX=0.984;exitY=0.657;exitDx=0;exitDy=0;exitPerimeter=0;entryX=0.42;entryY=-0.007;entryDx=0;entryDy=0;entryPerimeter=0;labelBackgroundColor=none;textShadow=0;fontColor=#000000;shadow=0;labelBorderColor=none;" parent="1" source="luQNtdRatxjwP468r3o8-26" target="luQNtdRatxjwP468r3o8-4" edge="1">
                    <mxGeometry width="50" height="50" relative="1" as="geometry">
                        <mxPoint x="79.5" y="346.5" as="sourcePoint"/>
                        <mxPoint x="52" y="416.5" as="targetPoint"/>
                    </mxGeometry>
                </mxCell>
                <mxCell id="luQNtdRatxjwP468r3o8-35" value="" style="endArrow=none;html=1;rounded=0;entryX=0.5;entryY=1;entryDx=0;entryDy=0;exitX=0.415;exitY=-0.001;exitDx=0;exitDy=0;exitPerimeter=0;labelBackgroundColor=none;textShadow=0;fontColor=#000000;shadow=0;labelBorderColor=none;" parent="1" source="luQNtdRatxjwP468r3o8-4" target="luQNtdRatxjwP468r3o8-17" edge="1">
                    <mxGeometry width="50" height="50" relative="1" as="geometry">
                        <mxPoint x="59.5" y="591.5" as="sourcePoint"/>
                        <mxPoint x="73.25250000000005" y="513.34" as="targetPoint"/>
                    </mxGeometry>
                </mxCell>
                <mxCell id="luQNtdRatxjwP468r3o8-36" value="" style="endArrow=none;html=1;rounded=0;exitX=0.5;exitY=0;exitDx=0;exitDy=0;entryX=0.5;entryY=1;entryDx=0;entryDy=0;labelBackgroundColor=none;textShadow=0;fontColor=#000000;shadow=0;labelBorderColor=none;" parent="1" source="luQNtdRatxjwP468r3o8-1" target="luQNtdRatxjwP468r3o8-23" edge="1">
                    <mxGeometry width="50" height="50" relative="1" as="geometry">
                        <mxPoint x="654.5" y="414" as="sourcePoint"/>
                        <mxPoint x="704.5" y="364" as="targetPoint"/>
                    </mxGeometry>
                </mxCell>
                <mxCell id="luQNtdRatxjwP468r3o8-37" value="" style="endArrow=none;html=1;rounded=0;exitX=0.5;exitY=0;exitDx=0;exitDy=0;entryX=0.684;entryY=0.969;entryDx=0;entryDy=0;entryPerimeter=0;labelBackgroundColor=none;textShadow=0;fontColor=#000000;shadow=0;labelBorderColor=none;" parent="1" source="luQNtdRatxjwP468r3o8-1" target="luQNtdRatxjwP468r3o8-16" edge="1">
                    <mxGeometry width="50" height="50" relative="1" as="geometry">
                        <mxPoint x="524.5" y="424" as="sourcePoint"/>
                        <mxPoint x="574.5" y="374" as="targetPoint"/>
                        <Array as="points"/>
                    </mxGeometry>
                </mxCell>
                <mxCell id="luQNtdRatxjwP468r3o8-44" value="" style="endArrow=none;html=1;rounded=0;entryX=0.5;entryY=0;entryDx=0;entryDy=0;exitX=0;exitY=1;exitDx=0;exitDy=0;labelBackgroundColor=none;textShadow=0;fontColor=#000000;shadow=0;labelBorderColor=none;" parent="1" source="luQNtdRatxjwP468r3o8-24" target="luQNtdRatxjwP468r3o8-1" edge="1">
                    <mxGeometry width="50" height="50" relative="1" as="geometry">
                        <mxPoint x="584.5" y="484" as="sourcePoint"/>
                        <mxPoint x="634.5" y="434" as="targetPoint"/>
                    </mxGeometry>
                </mxCell>
                <mxCell id="luQNtdRatxjwP468r3o8-45" value="&lt;u&gt;address_id&lt;/u&gt;" style="ellipse;whiteSpace=wrap;html=1;labelBackgroundColor=none;textShadow=0;shadow=0;labelBorderColor=none;" parent="1" vertex="1">
                    <mxGeometry x="776" y="285.25" width="74.5" height="27.5" as="geometry"/>
                </mxCell>
                <mxCell id="luQNtdRatxjwP468r3o8-48" value="&lt;span style=&quot;&quot;&gt;city&lt;/span&gt;" style="ellipse;whiteSpace=wrap;html=1;labelBackgroundColor=none;textShadow=0;shadow=0;labelBorderColor=none;" parent="1" vertex="1">
                    <mxGeometry x="942" y="255" width="48.88" height="30.25" as="geometry"/>
                </mxCell>
                <mxCell id="luQNtdRatxjwP468r3o8-49" value="state" style="ellipse;whiteSpace=wrap;html=1;labelBackgroundColor=none;textShadow=0;shadow=0;labelBorderColor=none;" parent="1" vertex="1">
                    <mxGeometry x="986" y="280" width="55.5" height="32.75" as="geometry"/>
                </mxCell>
                <mxCell id="luQNtdRatxjwP468r3o8-50" value="" style="endArrow=none;html=1;rounded=0;exitX=0.455;exitY=-0.001;exitDx=0;exitDy=0;exitPerimeter=0;entryX=0.977;entryY=0.645;entryDx=0;entryDy=0;entryPerimeter=0;labelBackgroundColor=none;textShadow=0;fontColor=#000000;shadow=0;labelBorderColor=none;" parent="1" source="luQNtdRatxjwP468r3o8-12" target="luQNtdRatxjwP468r3o8-45" edge="1">
                    <mxGeometry width="50" height="50" relative="1" as="geometry">
                        <mxPoint x="794" y="362.75" as="sourcePoint"/>
                        <mxPoint x="838" y="307.75" as="targetPoint"/>
                    </mxGeometry>
                </mxCell>
                <mxCell id="luQNtdRatxjwP468r3o8-51" value="" style="endArrow=none;html=1;rounded=0;exitX=0.454;exitY=-0.001;exitDx=0;exitDy=0;entryX=0.451;entryY=1.018;entryDx=0;entryDy=0;entryPerimeter=0;exitPerimeter=0;labelBackgroundColor=none;textShadow=0;fontColor=#000000;shadow=0;labelBorderColor=none;" parent="1" source="luQNtdRatxjwP468r3o8-12" target="luQNtdRatxjwP468r3o8-46" edge="1">
                    <mxGeometry width="50" height="50" relative="1" as="geometry">
                        <mxPoint x="904" y="302.75" as="sourcePoint"/>
                        <mxPoint x="864" y="302.75" as="targetPoint"/>
                    </mxGeometry>
                </mxCell>
                <mxCell id="luQNtdRatxjwP468r3o8-52" value="" style="endArrow=none;html=1;rounded=0;exitX=0.45;exitY=-0.017;exitDx=0;exitDy=0;entryX=0.069;entryY=0.753;entryDx=0;entryDy=0;exitPerimeter=0;entryPerimeter=0;labelBackgroundColor=none;textShadow=0;fontColor=#000000;shadow=0;labelBorderColor=none;" parent="1" source="luQNtdRatxjwP468r3o8-12" target="luQNtdRatxjwP468r3o8-49" edge="1">
                    <mxGeometry width="50" height="50" relative="1" as="geometry">
                        <mxPoint x="903.9999999999997" y="294.77" as="sourcePoint"/>
                        <mxPoint x="975.64" y="302.75" as="targetPoint"/>
                    </mxGeometry>
                </mxCell>
                <mxCell id="luQNtdRatxjwP468r3o8-53" value="" style="endArrow=none;html=1;rounded=0;exitX=0.448;exitY=-0.012;exitDx=0;exitDy=0;exitPerimeter=0;entryX=0.342;entryY=0.974;entryDx=0;entryDy=0;entryPerimeter=0;labelBackgroundColor=none;textShadow=0;fontColor=#000000;shadow=0;labelBorderColor=none;" parent="1" source="luQNtdRatxjwP468r3o8-12" target="luQNtdRatxjwP468r3o8-48" edge="1">
                    <mxGeometry width="50" height="50" relative="1" as="geometry">
                        <mxPoint x="910" y="327.75" as="sourcePoint"/>
                        <mxPoint x="914" y="292.75" as="targetPoint"/>
                    </mxGeometry>
                </mxCell>
                <mxCell id="luQNtdRatxjwP468r3o8-46" value="street_address" style="ellipse;whiteSpace=wrap;html=1;labelBackgroundColor=none;textShadow=0;shadow=0;labelBorderColor=none;" parent="1" vertex="1">
                    <mxGeometry x="836" y="260" width="100" height="31.5" as="geometry"/>
                </mxCell>
                <mxCell id="luQNtdRatxjwP468r3o8-55" value="user_id" style="ellipse;whiteSpace=wrap;html=1;labelBackgroundColor=none;textShadow=0;shadow=0;labelBorderColor=none;" parent="1" vertex="1">
                    <mxGeometry x="349.5" y="359" width="50" height="30" as="geometry"/>
                </mxCell>
                <mxCell id="luQNtdRatxjwP468r3o8-57" value="full_name" style="ellipse;whiteSpace=wrap;html=1;labelBackgroundColor=none;textShadow=0;shadow=0;labelBorderColor=none;" parent="1" vertex="1">
                    <mxGeometry x="211" y="327.75" width="65" height="30" as="geometry"/>
                </mxCell>
                <mxCell id="luQNtdRatxjwP468r3o8-58" value="phone" style="ellipse;whiteSpace=wrap;html=1;labelBackgroundColor=none;textShadow=0;shadow=0;labelBorderColor=none;" parent="1" vertex="1">
                    <mxGeometry x="174.5" y="367.75" width="55" height="30" as="geometry"/>
                </mxCell>
                <mxCell id="luQNtdRatxjwP468r3o8-59" value="" style="endArrow=none;html=1;rounded=0;exitX=0.5;exitY=0;exitDx=0;exitDy=0;entryX=0;entryY=1;entryDx=0;entryDy=0;labelBackgroundColor=none;textShadow=0;fontColor=#000000;shadow=0;labelBorderColor=none;" parent="1" source="luQNtdRatxjwP468r3o8-6" target="luQNtdRatxjwP468r3o8-55" edge="1">
                    <mxGeometry width="50" height="50" relative="1" as="geometry">
                        <mxPoint x="162" y="446.5" as="sourcePoint"/>
                        <mxPoint x="212" y="396.5" as="targetPoint"/>
                    </mxGeometry>
                </mxCell>
                <mxCell id="luQNtdRatxjwP468r3o8-60" value="" style="endArrow=none;html=1;rounded=0;exitX=0.505;exitY=-0.008;exitDx=0;exitDy=0;exitPerimeter=0;entryX=0.79;entryY=0.909;entryDx=0;entryDy=0;entryPerimeter=0;labelBackgroundColor=none;textShadow=0;fontColor=#000000;shadow=0;labelBorderColor=none;" parent="1" source="luQNtdRatxjwP468r3o8-6" target="luQNtdRatxjwP468r3o8-57" edge="1">
                    <mxGeometry width="50" height="50" relative="1" as="geometry">
                        <mxPoint x="252" y="466.5" as="sourcePoint"/>
                        <mxPoint x="182" y="436.5" as="targetPoint"/>
                    </mxGeometry>
                </mxCell>
                <mxCell id="luQNtdRatxjwP468r3o8-61" value="" style="endArrow=none;html=1;rounded=0;entryX=1;entryY=1;entryDx=0;entryDy=0;labelBackgroundColor=none;textShadow=0;fontColor=#000000;shadow=0;labelBorderColor=none;" parent="1" target="luQNtdRatxjwP468r3o8-58" edge="1">
                    <mxGeometry width="50" height="50" relative="1" as="geometry">
                        <mxPoint x="302" y="406.5" as="sourcePoint"/>
                        <mxPoint x="232" y="468.5" as="targetPoint"/>
                    </mxGeometry>
                </mxCell>
                <mxCell id="luQNtdRatxjwP468r3o8-63" value="user_id" style="ellipse;whiteSpace=wrap;html=1;labelBackgroundColor=none;textShadow=0;shadow=0;labelBorderColor=none;" parent="1" vertex="1">
                    <mxGeometry x="637" y="68.25" width="50" height="30" as="geometry"/>
                </mxCell>
                <mxCell id="luQNtdRatxjwP468r3o8-64" value="" style="endArrow=none;html=1;rounded=0;exitX=0.543;exitY=-0.006;exitDx=0;exitDy=0;entryX=0.5;entryY=1;entryDx=0;entryDy=0;exitPerimeter=0;labelBackgroundColor=none;textShadow=0;fontColor=#000000;shadow=0;labelBorderColor=none;" parent="1" source="luQNtdRatxjwP468r3o8-7" target="luQNtdRatxjwP468r3o8-65" edge="1">
                    <mxGeometry width="50" height="50" relative="1" as="geometry">
                        <mxPoint x="682" y="132" as="sourcePoint"/>
                        <mxPoint x="612" y="102" as="targetPoint"/>
                    </mxGeometry>
                </mxCell>
                <mxCell id="luQNtdRatxjwP468r3o8-65" value="license_number" style="ellipse;whiteSpace=wrap;html=1;labelBackgroundColor=none;textShadow=0;shadow=0;labelBorderColor=none;" parent="1" vertex="1">
                    <mxGeometry x="792.48" y="35" width="96.55" height="33.25" as="geometry"/>
                </mxCell>
                <mxCell id="luQNtdRatxjwP468r3o8-67" value="phone" style="ellipse;whiteSpace=wrap;html=1;labelBackgroundColor=none;textShadow=0;shadow=0;labelBorderColor=none;" parent="1" vertex="1">
                    <mxGeometry x="730.5" y="57" width="55" height="22.5" as="geometry"/>
                </mxCell>
                <mxCell id="luQNtdRatxjwP468r3o8-68" value="" style="endArrow=none;html=1;rounded=0;exitX=0.545;exitY=0;exitDx=0;exitDy=0;exitPerimeter=0;entryX=0.683;entryY=0.976;entryDx=0;entryDy=0;entryPerimeter=0;labelBackgroundColor=none;textShadow=0;fontColor=#000000;shadow=0;labelBorderColor=none;" parent="1" source="luQNtdRatxjwP468r3o8-7" target="luQNtdRatxjwP468r3o8-63" edge="1">
                    <mxGeometry width="50" height="50" relative="1" as="geometry">
                        <mxPoint x="612" y="132" as="sourcePoint"/>
                        <mxPoint x="662" y="82" as="targetPoint"/>
                    </mxGeometry>
                </mxCell>
                <mxCell id="luQNtdRatxjwP468r3o8-70" value="" style="endArrow=none;html=1;rounded=0;entryX=0.535;entryY=1.016;entryDx=0;entryDy=0;entryPerimeter=0;exitX=0.54;exitY=0.003;exitDx=0;exitDy=0;exitPerimeter=0;labelBackgroundColor=none;textShadow=0;fontColor=#000000;shadow=0;labelBorderColor=none;" parent="1" source="luQNtdRatxjwP468r3o8-7" target="luQNtdRatxjwP468r3o8-67" edge="1">
                    <mxGeometry width="50" height="50" relative="1" as="geometry">
                        <mxPoint x="704.5" y="124.5" as="sourcePoint"/>
                        <mxPoint x="689.28" y="54.5" as="targetPoint"/>
                    </mxGeometry>
                </mxCell>
                <mxCell id="luQNtdRatxjwP468r3o8-79" value="user_id" style="ellipse;whiteSpace=wrap;html=1;labelBackgroundColor=none;textShadow=0;shadow=0;labelBorderColor=none;" parent="1" vertex="1">
                    <mxGeometry x="-28" y="532.5" width="55" height="19.5" as="geometry"/>
                </mxCell>
                <mxCell id="luQNtdRatxjwP468r3o8-84" value="" style="endArrow=none;html=1;rounded=0;exitX=0.424;exitY=-0.003;exitDx=0;exitDy=0;exitPerimeter=0;entryX=0.698;entryY=0.952;entryDx=0;entryDy=0;entryPerimeter=0;labelBackgroundColor=none;textShadow=0;fontColor=#000000;shadow=0;labelBorderColor=none;" parent="1" source="luQNtdRatxjwP468r3o8-4" target="luQNtdRatxjwP468r3o8-79" edge="1">
                    <mxGeometry width="50" height="50" relative="1" as="geometry">
                        <mxPoint x="-53" y="631" as="sourcePoint"/>
                        <mxPoint x="-10" y="576" as="targetPoint"/>
                    </mxGeometry>
                </mxCell>
                <mxCell id="luQNtdRatxjwP468r3o8-91" value="expiry_date" style="ellipse;whiteSpace=wrap;html=1;labelBackgroundColor=none;textShadow=0;shadow=0;labelBorderColor=none;" parent="1" vertex="1">
                    <mxGeometry x="-73.62" y="740" width="90" height="35" as="geometry"/>
                </mxCell>
                <mxCell id="luQNtdRatxjwP468r3o8-92" value="&lt;u&gt;prescription_id&lt;/u&gt;" style="ellipse;whiteSpace=wrap;html=1;labelBackgroundColor=none;textShadow=0;shadow=0;labelBorderColor=none;" parent="1" vertex="1">
                    <mxGeometry x="-344" y="834" width="106" height="30" as="geometry"/>
                </mxCell>
                <mxCell id="luQNtdRatxjwP468r3o8-94" value="customer_id" style="ellipse;whiteSpace=wrap;html=1;labelBackgroundColor=none;textShadow=0;shadow=0;labelBorderColor=none;" parent="1" vertex="1">
                    <mxGeometry x="-284.5" y="783.5" width="105" height="31" as="geometry"/>
                </mxCell>
                <mxCell id="luQNtdRatxjwP468r3o8-95" value="" style="endArrow=none;html=1;rounded=0;exitX=1;exitY=0.5;exitDx=0;exitDy=0;entryX=-0.001;entryY=0.388;entryDx=0;entryDy=0;entryPerimeter=0;labelBackgroundColor=none;textShadow=0;fontColor=#000000;shadow=0;labelBorderColor=none;" parent="1" source="luQNtdRatxjwP468r3o8-92" target="luQNtdRatxjwP468r3o8-14" edge="1">
                    <mxGeometry width="50" height="50" relative="1" as="geometry">
                        <mxPoint x="-131" y="844" as="sourcePoint"/>
                        <mxPoint x="-181" y="892" as="targetPoint"/>
                    </mxGeometry>
                </mxCell>
                <mxCell id="luQNtdRatxjwP468r3o8-96" value="" style="endArrow=none;html=1;rounded=0;exitX=1;exitY=1;exitDx=0;exitDy=0;labelBackgroundColor=none;textShadow=0;fontColor=#000000;shadow=0;labelBorderColor=none;" parent="1" source="luQNtdRatxjwP468r3o8-94" target="luQNtdRatxjwP468r3o8-14" edge="1">
                    <mxGeometry width="50" height="50" relative="1" as="geometry">
                        <mxPoint x="-125" y="809" as="sourcePoint"/>
                        <mxPoint x="-91" y="814" as="targetPoint"/>
                    </mxGeometry>
                </mxCell>
                <mxCell id="luQNtdRatxjwP468r3o8-97" value="" style="endArrow=none;html=1;rounded=0;exitX=1;exitY=1;exitDx=0;exitDy=0;entryX=0.25;entryY=0;entryDx=0;entryDy=0;labelBackgroundColor=none;textShadow=0;fontColor=#000000;shadow=0;labelBorderColor=none;" parent="1" source="kxQEDlrHDEhXuMKwreyZ-32" target="luQNtdRatxjwP468r3o8-14" edge="1">
                    <mxGeometry width="50" height="50" relative="1" as="geometry">
                        <mxPoint x="-51" y="799" as="sourcePoint"/>
                        <mxPoint x="-12" y="833" as="targetPoint"/>
                    </mxGeometry>
                </mxCell>
                <mxCell id="luQNtdRatxjwP468r3o8-98" value="" style="endArrow=none;html=1;rounded=0;exitX=0.5;exitY=1;exitDx=0;exitDy=0;entryX=0.464;entryY=0;entryDx=0;entryDy=0;entryPerimeter=0;labelBackgroundColor=none;textShadow=0;fontColor=#000000;shadow=0;labelBorderColor=none;" parent="1" source="luQNtdRatxjwP468r3o8-91" target="luQNtdRatxjwP468r3o8-14" edge="1">
                    <mxGeometry width="50" height="50" relative="1" as="geometry">
                        <mxPoint x="-21" y="789" as="sourcePoint"/>
                        <mxPoint x="-19" y="844" as="targetPoint"/>
                    </mxGeometry>
                </mxCell>
                <mxCell id="luQNtdRatxjwP468r3o8-99" value="uploaded_at" style="ellipse;whiteSpace=wrap;html=1;labelBackgroundColor=none;textShadow=0;shadow=0;labelBorderColor=none;" parent="1" vertex="1">
                    <mxGeometry x="17" y="745" width="90" height="30" as="geometry"/>
                </mxCell>
                <mxCell id="luQNtdRatxjwP468r3o8-100" value="" style="endArrow=none;html=1;rounded=0;exitX=0;exitY=1;exitDx=0;exitDy=0;labelBackgroundColor=none;textShadow=0;fontColor=#000000;shadow=0;labelBorderColor=none;" parent="1" source="luQNtdRatxjwP468r3o8-99" edge="1">
                    <mxGeometry width="50" height="50" relative="1" as="geometry">
                        <mxPoint x="9" y="834" as="sourcePoint"/>
                        <mxPoint x="-4" y="840" as="targetPoint"/>
                    </mxGeometry>
                </mxCell>
                <mxCell id="luQNtdRatxjwP468r3o8-101" value="status" style="ellipse;whiteSpace=wrap;html=1;labelBackgroundColor=none;textShadow=0;shadow=0;labelBorderColor=none;" parent="1" vertex="1">
                    <mxGeometry x="-374" y="787.75" width="80" height="30" as="geometry"/>
                </mxCell>
                <mxCell id="luQNtdRatxjwP468r3o8-102" value="" style="endArrow=none;html=1;rounded=0;exitX=1;exitY=1;exitDx=0;exitDy=0;entryX=0;entryY=0.25;entryDx=0;entryDy=0;labelBackgroundColor=none;textShadow=0;fontColor=#000000;shadow=0;labelBorderColor=none;" parent="1" source="luQNtdRatxjwP468r3o8-101" target="luQNtdRatxjwP468r3o8-14" edge="1">
                    <mxGeometry width="50" height="50" relative="1" as="geometry">
                        <mxPoint x="-251" y="825" as="sourcePoint"/>
                        <mxPoint x="-281" y="839" as="targetPoint"/>
                    </mxGeometry>
                </mxCell>
                <mxCell id="luQNtdRatxjwP468r3o8-103" value="prescription_medication" style="rounded=0;whiteSpace=wrap;html=1;align=center;verticalAlign=middle;fontFamily=Helvetica;fontSize=12;shadow=0;glass=0;fillStyle=solid;labelBackgroundColor=none;textShadow=0;labelBorderColor=none;" parent="1" vertex="1">
                    <mxGeometry x="-294" y="1109" width="149" height="53" as="geometry"/>
                </mxCell>
                <mxCell id="luQNtdRatxjwP468r3o8-105" value="&lt;u&gt;prescription_medication_id&lt;/u&gt;" style="ellipse;whiteSpace=wrap;html=1;labelBackgroundColor=none;textShadow=0;shadow=0;labelBorderColor=none;" parent="1" vertex="1">
                    <mxGeometry x="-489" y="969.26" width="170" height="44.88" as="geometry"/>
                </mxCell>
                <mxCell id="luQNtdRatxjwP468r3o8-107" value="medication_id" style="ellipse;whiteSpace=wrap;html=1;labelBackgroundColor=none;textShadow=0;shadow=0;labelBorderColor=none;" parent="1" vertex="1">
                    <mxGeometry x="-296.5" y="978.01" width="125" height="31" as="geometry"/>
                </mxCell>
                <mxCell id="luQNtdRatxjwP468r3o8-108" value="" style="endArrow=none;html=1;rounded=0;exitX=1;exitY=1;exitDx=0;exitDy=0;entryX=0.44;entryY=0.003;entryDx=0;entryDy=0;entryPerimeter=0;labelBackgroundColor=none;textShadow=0;fontColor=#000000;shadow=0;labelBorderColor=none;" parent="1" source="luQNtdRatxjwP468r3o8-105" target="luQNtdRatxjwP468r3o8-103" edge="1">
                    <mxGeometry width="50" height="50" relative="1" as="geometry">
                        <mxPoint x="-285" y="1109" as="sourcePoint"/>
                        <mxPoint x="-335" y="1157" as="targetPoint"/>
                    </mxGeometry>
                </mxCell>
                <mxCell id="luQNtdRatxjwP468r3o8-109" value="" style="endArrow=none;html=1;rounded=0;exitX=0.5;exitY=1;exitDx=0;exitDy=0;entryX=0.431;entryY=-0.009;entryDx=0;entryDy=0;entryPerimeter=0;labelBackgroundColor=none;textShadow=0;fontColor=#000000;shadow=0;labelBorderColor=none;" parent="1" source="luQNtdRatxjwP468r3o8-107" target="luQNtdRatxjwP468r3o8-103" edge="1">
                    <mxGeometry width="50" height="50" relative="1" as="geometry">
                        <mxPoint x="-279" y="1074" as="sourcePoint"/>
                        <mxPoint x="-245" y="1079" as="targetPoint"/>
                    </mxGeometry>
                </mxCell>
                <mxCell id="luQNtdRatxjwP468r3o8-117" value="prescription_id" style="ellipse;whiteSpace=wrap;html=1;labelBackgroundColor=none;textShadow=0;shadow=0;labelBorderColor=none;" parent="1" vertex="1">
                    <mxGeometry x="-450" y="1029.5" width="131" height="33.5" as="geometry"/>
                </mxCell>
                <mxCell id="luQNtdRatxjwP468r3o8-118" value="" style="endArrow=none;html=1;rounded=0;exitX=1;exitY=1;exitDx=0;exitDy=0;entryX=0.437;entryY=-0.002;entryDx=0;entryDy=0;entryPerimeter=0;labelBackgroundColor=none;textShadow=0;fontColor=#000000;shadow=0;labelBorderColor=none;" parent="1" source="luQNtdRatxjwP468r3o8-117" target="luQNtdRatxjwP468r3o8-103" edge="1">
                    <mxGeometry width="50" height="50" relative="1" as="geometry">
                        <mxPoint x="-275" y="1119" as="sourcePoint"/>
                        <mxPoint x="-246" y="1136" as="targetPoint"/>
                    </mxGeometry>
                </mxCell>
                <mxCell id="luQNtdRatxjwP468r3o8-120" value="&lt;u&gt;medication_id&lt;/u&gt;" style="ellipse;whiteSpace=wrap;html=1;labelBackgroundColor=none;textShadow=0;shadow=0;labelBorderColor=none;" parent="1" vertex="1">
                    <mxGeometry x="292" y="948.01" width="95.51" height="30" as="geometry"/>
                </mxCell>
                <mxCell id="luQNtdRatxjwP468r3o8-121" value="name" style="ellipse;whiteSpace=wrap;html=1;labelBackgroundColor=none;textShadow=0;shadow=0;labelBorderColor=none;" parent="1" vertex="1">
                    <mxGeometry x="341" y="891.77" width="64.37" height="22.25" as="geometry"/>
                </mxCell>
                <mxCell id="luQNtdRatxjwP468r3o8-122" value="created_at" style="ellipse;whiteSpace=wrap;html=1;labelBackgroundColor=none;textShadow=0;shadow=0;labelBorderColor=none;" parent="1" vertex="1">
                    <mxGeometry x="598.5" y="861.01" width="75" height="32.5" as="geometry"/>
                </mxCell>
                <mxCell id="luQNtdRatxjwP468r3o8-123" value="expiry_date" style="ellipse;whiteSpace=wrap;html=1;labelBackgroundColor=none;textShadow=0;shadow=0;labelBorderColor=none;" parent="1" vertex="1">
                    <mxGeometry x="590.26" y="946.76" width="73.75" height="22.5" as="geometry"/>
                </mxCell>
                <mxCell id="luQNtdRatxjwP468r3o8-124" value="" style="endArrow=none;html=1;rounded=0;exitX=0;exitY=0.25;exitDx=0;exitDy=0;entryX=1;entryY=1;entryDx=0;entryDy=0;labelBackgroundColor=none;textShadow=0;fontColor=#000000;shadow=0;labelBorderColor=none;" parent="1" source="luQNtdRatxjwP468r3o8-11" target="luQNtdRatxjwP468r3o8-120" edge="1">
                    <mxGeometry width="50" height="50" relative="1" as="geometry">
                        <mxPoint x="335.51" y="1014.26" as="sourcePoint"/>
                        <mxPoint x="385.51" y="964.26" as="targetPoint"/>
                    </mxGeometry>
                </mxCell>
                <mxCell id="luQNtdRatxjwP468r3o8-125" value="" style="endArrow=none;html=1;rounded=0;exitX=0.189;exitY=0;exitDx=0;exitDy=0;entryX=0.5;entryY=1;entryDx=0;entryDy=0;exitPerimeter=0;labelBackgroundColor=none;textShadow=0;fontColor=#000000;shadow=0;labelBorderColor=none;" parent="1" source="luQNtdRatxjwP468r3o8-11" target="luQNtdRatxjwP468r3o8-121" edge="1">
                    <mxGeometry width="50" height="50" relative="1" as="geometry">
                        <mxPoint x="443.51" y="953.26" as="sourcePoint"/>
                        <mxPoint x="417.51" y="934.26" as="targetPoint"/>
                    </mxGeometry>
                </mxCell>
                <mxCell id="luQNtdRatxjwP468r3o8-126" value="" style="endArrow=none;html=1;rounded=0;exitX=0.346;exitY=0;exitDx=0;exitDy=0;entryX=0.372;entryY=0.963;entryDx=0;entryDy=0;exitPerimeter=0;entryPerimeter=0;labelBackgroundColor=none;textShadow=0;fontColor=#000000;shadow=0;labelBorderColor=none;" parent="1" source="luQNtdRatxjwP468r3o8-11" target="luQNtdRatxjwP468r3o8-122" edge="1">
                    <mxGeometry width="50" height="50" relative="1" as="geometry">
                        <mxPoint x="493.01" y="974.26" as="sourcePoint"/>
                        <mxPoint x="482.51" y="934.26" as="targetPoint"/>
                    </mxGeometry>
                </mxCell>
                <mxCell id="luQNtdRatxjwP468r3o8-127" value="" style="endArrow=none;html=1;rounded=0;exitX=0.729;exitY=-0.002;exitDx=0;exitDy=0;entryX=0.063;entryY=0.773;entryDx=0;entryDy=0;exitPerimeter=0;entryPerimeter=0;labelBackgroundColor=none;textShadow=0;fontColor=#000000;shadow=0;labelBorderColor=none;" parent="1" source="luQNtdRatxjwP468r3o8-11" target="luQNtdRatxjwP468r3o8-123" edge="1">
                    <mxGeometry width="50" height="50" relative="1" as="geometry">
                        <mxPoint x="468.01" y="1004.26" as="sourcePoint"/>
                        <mxPoint x="509.51" y="964.26" as="targetPoint"/>
                    </mxGeometry>
                </mxCell>
                <mxCell id="gZQUNsks4zCgevMbOkbr-4" value="&lt;u&gt;order_id&lt;/u&gt;" style="ellipse;whiteSpace=wrap;html=1;labelBackgroundColor=none;textShadow=0;shadow=0;labelBorderColor=none;" parent="1" vertex="1">
                    <mxGeometry x="461" y="615" width="70" height="30" as="geometry"/>
                </mxCell>
                <mxCell id="gZQUNsks4zCgevMbOkbr-5" value="customer_id" style="ellipse;whiteSpace=wrap;html=1;labelBackgroundColor=none;textShadow=0;shadow=0;labelBorderColor=none;" parent="1" vertex="1">
                    <mxGeometry x="479.75" y="586.5" width="96" height="25" as="geometry"/>
                </mxCell>
                <mxCell id="gZQUNsks4zCgevMbOkbr-6" value="pharmacist_id" style="ellipse;whiteSpace=wrap;html=1;labelBackgroundColor=none;textShadow=0;shadow=0;labelBorderColor=none;" parent="1" vertex="1">
                    <mxGeometry x="519.5" y="547.25" width="100" height="30" as="geometry"/>
                </mxCell>
                <mxCell id="gZQUNsks4zCgevMbOkbr-7" value="" style="endArrow=none;html=1;rounded=0;exitX=0.928;exitY=0.772;exitDx=0;exitDy=0;exitPerimeter=0;entryX=-0.003;entryY=0.581;entryDx=0;entryDy=0;entryPerimeter=0;labelBackgroundColor=none;textShadow=0;fontColor=#000000;shadow=0;labelBorderColor=none;" parent="1" source="gZQUNsks4zCgevMbOkbr-4" target="luQNtdRatxjwP468r3o8-8" edge="1">
                    <mxGeometry width="50" height="50" relative="1" as="geometry">
                        <mxPoint x="565.76" y="712" as="sourcePoint"/>
                        <mxPoint x="615.76" y="662" as="targetPoint"/>
                    </mxGeometry>
                </mxCell>
                <mxCell id="gZQUNsks4zCgevMbOkbr-8" value="" style="endArrow=none;html=1;rounded=0;exitX=0.386;exitY=0.993;exitDx=0;exitDy=0;exitPerimeter=0;entryX=0.292;entryY=-0.012;entryDx=0;entryDy=0;entryPerimeter=0;labelBackgroundColor=none;textShadow=0;fontColor=#000000;shadow=0;labelBorderColor=none;" parent="1" source="gZQUNsks4zCgevMbOkbr-5" target="luQNtdRatxjwP468r3o8-8" edge="1">
                    <mxGeometry width="50" height="50" relative="1" as="geometry">
                        <mxPoint x="642.76" y="602" as="sourcePoint"/>
                        <mxPoint x="666.76" y="629" as="targetPoint"/>
                    </mxGeometry>
                </mxCell>
                <mxCell id="gZQUNsks4zCgevMbOkbr-9" value="" style="endArrow=none;html=1;rounded=0;entryX=0.546;entryY=0.001;entryDx=0;entryDy=0;entryPerimeter=0;exitX=0.247;exitY=0.938;exitDx=0;exitDy=0;exitPerimeter=0;labelBackgroundColor=none;textShadow=0;fontColor=#000000;shadow=0;labelBorderColor=none;" parent="1" source="gZQUNsks4zCgevMbOkbr-6" target="luQNtdRatxjwP468r3o8-8" edge="1">
                    <mxGeometry width="50" height="50" relative="1" as="geometry">
                        <mxPoint x="627.38" y="1134.5" as="sourcePoint"/>
                        <mxPoint x="629.38" y="1174.5" as="targetPoint"/>
                    </mxGeometry>
                </mxCell>
                <mxCell id="gZQUNsks4zCgevMbOkbr-11" value="&lt;u&gt;order_item_id&lt;/u&gt;" style="ellipse;whiteSpace=wrap;html=1;labelBackgroundColor=none;textShadow=0;shadow=0;labelBorderColor=none;" parent="1" vertex="1">
                    <mxGeometry x="625.76" y="765" width="90" height="25" as="geometry"/>
                </mxCell>
                <mxCell id="gZQUNsks4zCgevMbOkbr-13" value="order_id" style="ellipse;whiteSpace=wrap;html=1;labelBackgroundColor=none;textShadow=0;shadow=0;labelBorderColor=none;" parent="1" vertex="1">
                    <mxGeometry x="717" y="747.5" width="55" height="25" as="geometry"/>
                </mxCell>
                <mxCell id="gZQUNsks4zCgevMbOkbr-14" value="med_id" style="ellipse;whiteSpace=wrap;html=1;labelBackgroundColor=none;textShadow=0;shadow=0;labelBorderColor=none;" parent="1" vertex="1">
                    <mxGeometry x="774.51" y="772.5" width="55" height="25" as="geometry"/>
                </mxCell>
                <mxCell id="gZQUNsks4zCgevMbOkbr-15" value="" style="endArrow=none;html=1;rounded=0;exitX=0;exitY=0.25;exitDx=0;exitDy=0;entryX=0.657;entryY=0.974;entryDx=0;entryDy=0;entryPerimeter=0;labelBackgroundColor=none;textShadow=0;fontColor=#000000;shadow=0;labelBorderColor=none;" parent="1" source="luQNtdRatxjwP468r3o8-10" target="gZQUNsks4zCgevMbOkbr-11" edge="1">
                    <mxGeometry width="50" height="50" relative="1" as="geometry">
                        <mxPoint x="677.62" y="846.5" as="sourcePoint"/>
                        <mxPoint x="727.62" y="796.5" as="targetPoint"/>
                    </mxGeometry>
                </mxCell>
                <mxCell id="gZQUNsks4zCgevMbOkbr-16" value="" style="endArrow=none;html=1;rounded=0;exitX=0.221;exitY=-0.017;exitDx=0;exitDy=0;entryX=0.402;entryY=1.005;entryDx=0;entryDy=0;entryPerimeter=0;exitPerimeter=0;labelBackgroundColor=none;textShadow=0;fontColor=#000000;shadow=0;labelBorderColor=none;" parent="1" source="luQNtdRatxjwP468r3o8-10" target="gZQUNsks4zCgevMbOkbr-13" edge="1">
                    <mxGeometry width="50" height="50" relative="1" as="geometry">
                        <mxPoint x="871.12" y="842.5" as="sourcePoint"/>
                        <mxPoint x="810.12" y="781.5" as="targetPoint"/>
                    </mxGeometry>
                </mxCell>
                <mxCell id="gZQUNsks4zCgevMbOkbr-18" value="" style="endArrow=none;html=1;rounded=0;exitX=0.647;exitY=-0.003;exitDx=0;exitDy=0;exitPerimeter=0;entryX=0.5;entryY=1;entryDx=0;entryDy=0;labelBackgroundColor=none;textShadow=0;fontColor=#000000;shadow=0;labelBorderColor=none;" parent="1" source="luQNtdRatxjwP468r3o8-10" target="kxQEDlrHDEhXuMKwreyZ-33" edge="1">
                    <mxGeometry width="50" height="50" relative="1" as="geometry">
                        <mxPoint x="843.62" y="855.5" as="sourcePoint"/>
                        <mxPoint x="867.5" y="797.5" as="targetPoint"/>
                    </mxGeometry>
                </mxCell>
                <mxCell id="gZQUNsks4zCgevMbOkbr-19" value="created_at" style="ellipse;whiteSpace=wrap;html=1;labelBackgroundColor=none;textShadow=0;shadow=0;labelBorderColor=none;" parent="1" vertex="1">
                    <mxGeometry x="929.5" y="787.75" width="75" height="30" as="geometry"/>
                </mxCell>
                <mxCell id="gZQUNsks4zCgevMbOkbr-21" value="prescription_id" style="ellipse;whiteSpace=wrap;html=1;labelBackgroundColor=none;textShadow=0;shadow=0;labelBorderColor=none;" parent="1" vertex="1">
                    <mxGeometry x="593.12" y="577.25" width="111" height="30" as="geometry"/>
                </mxCell>
                <mxCell id="gZQUNsks4zCgevMbOkbr-22" value="order_date" style="ellipse;whiteSpace=wrap;html=1;labelBackgroundColor=none;textShadow=0;shadow=0;labelBorderColor=none;" parent="1" vertex="1">
                    <mxGeometry x="667.62" y="604.5" width="70" height="20" as="geometry"/>
                </mxCell>
                <mxCell id="gZQUNsks4zCgevMbOkbr-23" value="" style="endArrow=none;html=1;rounded=0;entryX=0.7;entryY=0;entryDx=0;entryDy=0;entryPerimeter=0;exitX=0.342;exitY=1.001;exitDx=0;exitDy=0;exitPerimeter=0;labelBackgroundColor=none;textShadow=0;fontColor=#000000;shadow=0;labelBorderColor=none;" parent="1" source="gZQUNsks4zCgevMbOkbr-21" target="luQNtdRatxjwP468r3o8-8" edge="1">
                    <mxGeometry width="50" height="50" relative="1" as="geometry">
                        <mxPoint x="681.76" y="594.5" as="sourcePoint"/>
                        <mxPoint x="718.76" y="676.5" as="targetPoint"/>
                    </mxGeometry>
                </mxCell>
                <mxCell id="gZQUNsks4zCgevMbOkbr-24" value="" style="endArrow=none;html=1;rounded=0;entryX=0.784;entryY=-0.021;entryDx=0;entryDy=0;entryPerimeter=0;exitX=0.017;exitY=0.629;exitDx=0;exitDy=0;exitPerimeter=0;labelBackgroundColor=none;textShadow=0;fontColor=#000000;shadow=0;labelBorderColor=none;" parent="1" source="gZQUNsks4zCgevMbOkbr-22" target="luQNtdRatxjwP468r3o8-8" edge="1">
                    <mxGeometry width="50" height="50" relative="1" as="geometry">
                        <mxPoint x="733.26" y="612" as="sourcePoint"/>
                        <mxPoint x="724.26" y="657" as="targetPoint"/>
                    </mxGeometry>
                </mxCell>
                <mxCell id="gZQUNsks4zCgevMbOkbr-25" value="total_amount" style="ellipse;whiteSpace=wrap;html=1;labelBackgroundColor=none;textShadow=0;shadow=0;labelBorderColor=none;" parent="1" vertex="1">
                    <mxGeometry x="754.26" y="557.25" width="95.5" height="20" as="geometry"/>
                </mxCell>
                <mxCell id="gZQUNsks4zCgevMbOkbr-26" value="" style="endArrow=none;html=1;rounded=0;entryX=0;entryY=1;entryDx=0;entryDy=0;exitX=1.005;exitY=0.218;exitDx=0;exitDy=0;exitPerimeter=0;labelBackgroundColor=none;textShadow=0;fontColor=#000000;shadow=0;labelBorderColor=none;" parent="1" source="luQNtdRatxjwP468r3o8-8" target="gZQUNsks4zCgevMbOkbr-25" edge="1">
                    <mxGeometry width="50" height="50" relative="1" as="geometry">
                        <mxPoint x="689.26" y="692" as="sourcePoint"/>
                        <mxPoint x="739.26" y="642" as="targetPoint"/>
                    </mxGeometry>
                </mxCell>
                <mxCell id="gZQUNsks4zCgevMbOkbr-27" value="order_status" style="ellipse;whiteSpace=wrap;html=1;labelBackgroundColor=none;textShadow=0;shadow=0;labelBorderColor=none;" parent="1" vertex="1">
                    <mxGeometry x="447.25" y="649.5" width="92.75" height="22" as="geometry"/>
                </mxCell>
                <mxCell id="gZQUNsks4zCgevMbOkbr-28" value="" style="endArrow=none;html=1;rounded=0;exitX=0.992;exitY=0.587;exitDx=0;exitDy=0;exitPerimeter=0;entryX=-0.002;entryY=0.594;entryDx=0;entryDy=0;entryPerimeter=0;labelBackgroundColor=none;textShadow=0;fontColor=#000000;shadow=0;labelBorderColor=none;" parent="1" source="gZQUNsks4zCgevMbOkbr-27" target="luQNtdRatxjwP468r3o8-8" edge="1">
                    <mxGeometry width="50" height="50" relative="1" as="geometry">
                        <mxPoint x="561.76" y="655" as="sourcePoint"/>
                        <mxPoint x="585.76" y="682" as="targetPoint"/>
                    </mxGeometry>
                </mxCell>
                <mxCell id="gZQUNsks4zCgevMbOkbr-29" value="created_at" style="ellipse;whiteSpace=wrap;html=1;labelBackgroundColor=none;textShadow=0;shadow=0;labelBorderColor=none;" parent="1" vertex="1">
                    <mxGeometry x="769" y="591.5" width="95.5" height="20" as="geometry"/>
                </mxCell>
                <mxCell id="gZQUNsks4zCgevMbOkbr-30" value="" style="endArrow=none;html=1;rounded=0;entryX=0.03;entryY=0.313;entryDx=0;entryDy=0;entryPerimeter=0;exitX=1.012;exitY=0.373;exitDx=0;exitDy=0;exitPerimeter=0;labelBackgroundColor=none;textShadow=0;fontColor=#000000;shadow=0;labelBorderColor=none;" parent="1" source="luQNtdRatxjwP468r3o8-8" target="gZQUNsks4zCgevMbOkbr-29" edge="1">
                    <mxGeometry width="50" height="50" relative="1" as="geometry">
                        <mxPoint x="689.76" y="662" as="sourcePoint"/>
                        <mxPoint x="728.76" y="651" as="targetPoint"/>
                    </mxGeometry>
                </mxCell>
                <mxCell id="gZQUNsks4zCgevMbOkbr-31" value="updated_at" style="ellipse;whiteSpace=wrap;html=1;labelBackgroundColor=none;textShadow=0;shadow=0;labelBorderColor=none;" parent="1" vertex="1">
                    <mxGeometry x="778.75" y="622" width="79.5" height="20" as="geometry"/>
                </mxCell>
                <mxCell id="gZQUNsks4zCgevMbOkbr-32" value="" style="endArrow=none;html=1;rounded=0;exitX=1.002;exitY=0.618;exitDx=0;exitDy=0;exitPerimeter=0;entryX=0;entryY=1;entryDx=0;entryDy=0;labelBackgroundColor=none;textShadow=0;fontColor=#000000;shadow=0;labelBorderColor=none;" parent="1" source="luQNtdRatxjwP468r3o8-8" target="gZQUNsks4zCgevMbOkbr-31" edge="1">
                    <mxGeometry width="50" height="50" relative="1" as="geometry">
                        <mxPoint x="695.76" y="671" as="sourcePoint"/>
                        <mxPoint x="721.76" y="672" as="targetPoint"/>
                    </mxGeometry>
                </mxCell>
                <mxCell id="gZQUNsks4zCgevMbOkbr-33" value="" style="endArrow=none;html=1;rounded=0;exitX=0.771;exitY=-0.018;exitDx=0;exitDy=0;exitPerimeter=0;entryX=0;entryY=1;entryDx=0;entryDy=0;labelBackgroundColor=none;textShadow=0;fontColor=#000000;shadow=0;labelBorderColor=none;" parent="1" source="luQNtdRatxjwP468r3o8-10" target="gZQUNsks4zCgevMbOkbr-38" edge="1">
                    <mxGeometry width="50" height="50" relative="1" as="geometry">
                        <mxPoint x="897.6199999999999" y="861.5" as="sourcePoint"/>
                        <mxPoint x="895.6199999999999" y="811.5" as="targetPoint"/>
                    </mxGeometry>
                </mxCell>
                <mxCell id="gZQUNsks4zCgevMbOkbr-38" value="unit_price" style="ellipse;whiteSpace=wrap;html=1;labelBackgroundColor=none;textShadow=0;shadow=0;labelBorderColor=none;" parent="1" vertex="1">
                    <mxGeometry x="912.12" y="758.5" width="77.38" height="25.5" as="geometry"/>
                </mxCell>
                <mxCell id="gZQUNsks4zCgevMbOkbr-39" value="" style="endArrow=none;html=1;rounded=0;exitX=1;exitY=0;exitDx=0;exitDy=0;entryX=0;entryY=1;entryDx=0;entryDy=0;labelBackgroundColor=none;textShadow=0;fontColor=#000000;shadow=0;labelBorderColor=none;" parent="1" source="luQNtdRatxjwP468r3o8-10" target="gZQUNsks4zCgevMbOkbr-19" edge="1">
                    <mxGeometry width="50" height="50" relative="1" as="geometry">
                        <mxPoint x="867.62" y="878.5" as="sourcePoint"/>
                        <mxPoint x="907.6199999999999" y="844.5" as="targetPoint"/>
                    </mxGeometry>
                </mxCell>
                <mxCell id="QuuJD2jzFq8tw_iPmlia-7" value="" style="endArrow=none;html=1;rounded=0;exitX=1;exitY=0.5;exitDx=0;exitDy=0;entryX=0;entryY=0.5;entryDx=0;entryDy=0;labelBackgroundColor=none;textShadow=0;fontColor=#000000;shadow=0;labelBorderColor=none;" parent="1" source="kxQEDlrHDEhXuMKwreyZ-6" target="luQNtdRatxjwP468r3o8-12" edge="1">
                    <mxGeometry width="50" height="50" relative="1" as="geometry">
                        <mxPoint x="813.25" y="455.25" as="sourcePoint"/>
                        <mxPoint x="1087" y="354" as="targetPoint"/>
                    </mxGeometry>
                </mxCell>
                <mxCell id="QuuJD2jzFq8tw_iPmlia-10" value="" style="endArrow=none;html=1;rounded=0;exitX=1;exitY=0.5;exitDx=0;exitDy=0;entryX=0.5;entryY=1;entryDx=0;entryDy=0;labelBackgroundColor=none;textShadow=0;fontColor=#000000;shadow=0;labelBorderColor=none;" parent="1" source="luQNtdRatxjwP468r3o8-14" target="kxQEDlrHDEhXuMKwreyZ-8" edge="1">
                    <mxGeometry width="50" height="50" relative="1" as="geometry">
                        <mxPoint x="392" y="844" as="sourcePoint"/>
                        <mxPoint x="122" y="769.5" as="targetPoint"/>
                    </mxGeometry>
                </mxCell>
                <mxCell id="QuuJD2jzFq8tw_iPmlia-11" value="uses" style="rhombus;whiteSpace=wrap;html=1;labelBackgroundColor=none;textShadow=0;shadow=0;labelBorderColor=none;" parent="1" vertex="1">
                    <mxGeometry x="309.5" y="784" width="66.5" height="70" as="geometry"/>
                </mxCell>
                <mxCell id="QuuJD2jzFq8tw_iPmlia-14" value="contains" style="rhombus;whiteSpace=wrap;html=1;labelBackgroundColor=none;textShadow=0;shadow=0;labelBorderColor=none;" parent="1" vertex="1">
                    <mxGeometry x="996" y="695" width="80" height="80" as="geometry"/>
                </mxCell>
                <mxCell id="QuuJD2jzFq8tw_iPmlia-15" value="" style="endArrow=none;html=1;rounded=0;exitX=0;exitY=0.5;exitDx=0;exitDy=0;entryX=0.5;entryY=1;entryDx=0;entryDy=0;labelBackgroundColor=none;textShadow=0;fontColor=#000000;shadow=0;labelBorderColor=none;" parent="1" source="QuuJD2jzFq8tw_iPmlia-14" target="luQNtdRatxjwP468r3o8-8" edge="1">
                    <mxGeometry width="50" height="50" relative="1" as="geometry">
                        <mxPoint x="607.38" y="732" as="sourcePoint"/>
                        <mxPoint x="677.38" y="684.5" as="targetPoint"/>
                        <Array as="points">
                            <mxPoint x="671" y="735"/>
                        </Array>
                    </mxGeometry>
                </mxCell>
                <mxCell id="QuuJD2jzFq8tw_iPmlia-19" value="consists_of" style="rhombus;whiteSpace=wrap;html=1;fontFamily=Helvetica;fontSize=11;labelBackgroundColor=none;textShadow=0;shadow=0;labelBorderColor=none;" parent="1" vertex="1">
                    <mxGeometry x="31.379999999999995" y="971.5" width="80" height="80" as="geometry"/>
                </mxCell>
                <mxCell id="Wuxk7L9KU2dLP9V7J1aV-4" value="username" style="ellipse;whiteSpace=wrap;html=1;labelBackgroundColor=none;textShadow=0;shadow=0;labelBorderColor=none;" parent="1" vertex="1">
                    <mxGeometry x="622.51" y="297.75" width="63.5" height="30" as="geometry"/>
                </mxCell>
                <mxCell id="Wuxk7L9KU2dLP9V7J1aV-5" value="" style="endArrow=none;html=1;rounded=0;exitX=0.497;exitY=-0.012;exitDx=0;exitDy=0;exitPerimeter=0;entryX=0.347;entryY=0.977;entryDx=0;entryDy=0;entryPerimeter=0;labelBackgroundColor=none;textShadow=0;fontColor=#000000;shadow=0;labelBorderColor=none;" parent="1" source="luQNtdRatxjwP468r3o8-1" target="Wuxk7L9KU2dLP9V7J1aV-4" edge="1">
                    <mxGeometry width="50" height="50" relative="1" as="geometry">
                        <mxPoint x="662" y="367" as="sourcePoint"/>
                        <mxPoint x="737" y="341" as="targetPoint"/>
                    </mxGeometry>
                </mxCell>
                <mxCell id="Wuxk7L9KU2dLP9V7J1aV-7" value="" style="endArrow=none;html=1;rounded=0;exitX=0.5;exitY=1;exitDx=0;exitDy=0;entryX=1;entryY=0.75;entryDx=0;entryDy=0;labelBackgroundColor=none;textShadow=0;fontColor=#000000;shadow=0;labelBorderColor=none;" parent="1" source="QuuJD2jzFq8tw_iPmlia-14" target="luQNtdRatxjwP468r3o8-10" edge="1">
                    <mxGeometry width="50" height="50" relative="1" as="geometry">
                        <mxPoint x="1087.38" y="669.5" as="sourcePoint"/>
                        <mxPoint x="997" y="1024" as="targetPoint"/>
                        <Array as="points">
                            <mxPoint x="1036" y="886"/>
                        </Array>
                    </mxGeometry>
                </mxCell>
                <mxCell id="6rfVyG7VwJOiU-eXyLlD-1" value="has_role" style="rhombus;whiteSpace=wrap;html=1;labelBackgroundColor=none;textShadow=0;shadow=0;labelBorderColor=none;" parent="1" vertex="1">
                    <mxGeometry x="444.75" y="410.75" width="70" height="68" as="geometry"/>
                </mxCell>
                <mxCell id="6rfVyG7VwJOiU-eXyLlD-3" value="&lt;u&gt;customer_id&lt;/u&gt;" style="ellipse;whiteSpace=wrap;html=1;labelBackgroundColor=none;textShadow=0;shadow=0;labelBorderColor=none;" parent="1" vertex="1">
                    <mxGeometry x="-6.5" y="496.5" width="85" height="30" as="geometry"/>
                </mxCell>
                <mxCell id="6rfVyG7VwJOiU-eXyLlD-4" value="" style="endArrow=none;html=1;rounded=0;entryX=0.511;entryY=0.999;entryDx=0;entryDy=0;exitX=0.418;exitY=-0.001;exitDx=0;exitDy=0;exitPerimeter=0;entryPerimeter=0;labelBackgroundColor=none;textShadow=0;fontColor=#000000;shadow=0;labelBorderColor=none;" parent="1" source="luQNtdRatxjwP468r3o8-4" target="6rfVyG7VwJOiU-eXyLlD-3" edge="1">
                    <mxGeometry width="50" height="50" relative="1" as="geometry">
                        <mxPoint x="62" y="596.5" as="sourcePoint"/>
                        <mxPoint x="-22.5" y="526" as="targetPoint"/>
                    </mxGeometry>
                </mxCell>
                <mxCell id="6rfVyG7VwJOiU-eXyLlD-8" value="&lt;u&gt;admin_id&lt;/u&gt;" style="ellipse;whiteSpace=wrap;html=1;labelBackgroundColor=none;textShadow=0;shadow=0;labelBorderColor=none;" parent="1" vertex="1">
                    <mxGeometry x="283.25" y="335.25" width="66.25" height="32.5" as="geometry"/>
                </mxCell>
                <mxCell id="6rfVyG7VwJOiU-eXyLlD-10" value="" style="endArrow=none;html=1;rounded=0;exitX=0.5;exitY=0;exitDx=0;exitDy=0;entryX=0.5;entryY=1;entryDx=0;entryDy=0;labelBackgroundColor=none;textShadow=0;fontColor=#000000;shadow=0;labelBorderColor=none;" parent="1" source="luQNtdRatxjwP468r3o8-6" target="6rfVyG7VwJOiU-eXyLlD-8" edge="1">
                    <mxGeometry width="50" height="50" relative="1" as="geometry">
                        <mxPoint x="253.25" y="410.5" as="sourcePoint"/>
                        <mxPoint x="288.25" y="366.5" as="targetPoint"/>
                    </mxGeometry>
                </mxCell>
                <mxCell id="6rfVyG7VwJOiU-eXyLlD-11" value="created_at" style="ellipse;whiteSpace=wrap;html=1;labelBackgroundColor=none;textShadow=0;shadow=0;labelBorderColor=none;" parent="1" vertex="1">
                    <mxGeometry x="534.5" y="350.25" width="62.5" height="30" as="geometry"/>
                </mxCell>
                <mxCell id="6rfVyG7VwJOiU-eXyLlD-12" value="" style="endArrow=none;html=1;rounded=0;entryX=0.5;entryY=0;entryDx=0;entryDy=0;exitX=1;exitY=1;exitDx=0;exitDy=0;labelBackgroundColor=none;textShadow=0;fontColor=#000000;shadow=0;labelBorderColor=none;" parent="1" source="6rfVyG7VwJOiU-eXyLlD-11" target="luQNtdRatxjwP468r3o8-1" edge="1">
                    <mxGeometry width="50" height="50" relative="1" as="geometry">
                        <mxPoint x="547.12" y="374" as="sourcePoint"/>
                        <mxPoint x="623.12" y="400" as="targetPoint"/>
                    </mxGeometry>
                </mxCell>
                <mxCell id="6rfVyG7VwJOiU-eXyLlD-15" value="&lt;u&gt;pharmacist_id&lt;/u&gt;" style="ellipse;whiteSpace=wrap;html=1;labelBackgroundColor=none;textShadow=0;shadow=0;labelBorderColor=none;" parent="1" vertex="1">
                    <mxGeometry x="537" y="79.5" width="100" height="35" as="geometry"/>
                </mxCell>
                <mxCell id="6rfVyG7VwJOiU-eXyLlD-16" value="" style="endArrow=none;html=1;rounded=0;entryX=1;entryY=1;entryDx=0;entryDy=0;exitX=0.54;exitY=-0.007;exitDx=0;exitDy=0;exitPerimeter=0;labelBackgroundColor=none;textShadow=0;fontColor=#000000;shadow=0;labelBorderColor=none;" parent="1" source="luQNtdRatxjwP468r3o8-7" target="6rfVyG7VwJOiU-eXyLlD-15" edge="1">
                    <mxGeometry width="50" height="50" relative="1" as="geometry">
                        <mxPoint x="699.5" y="132" as="sourcePoint"/>
                        <mxPoint x="616.5" y="99.5" as="targetPoint"/>
                    </mxGeometry>
                </mxCell>
                <mxCell id="6rfVyG7VwJOiU-eXyLlD-17" value="" style="endArrow=none;html=1;rounded=0;exitX=0.5;exitY=0;exitDx=0;exitDy=0;entryX=1;entryY=0.5;entryDx=0;entryDy=0;labelBackgroundColor=none;textShadow=0;fontColor=#000000;shadow=0;labelBorderColor=none;" parent="1" source="luQNtdRatxjwP468r3o8-1" target="6rfVyG7VwJOiU-eXyLlD-18" edge="1">
                    <mxGeometry width="50" height="50" relative="1" as="geometry">
                        <mxPoint x="637" y="404" as="sourcePoint"/>
                        <mxPoint x="587" y="344" as="targetPoint"/>
                        <Array as="points"/>
                    </mxGeometry>
                </mxCell>
                <mxCell id="6rfVyG7VwJOiU-eXyLlD-18" value="role_type" style="ellipse;whiteSpace=wrap;html=1;labelBackgroundColor=none;textShadow=0;shadow=0;labelBorderColor=none;" parent="1" vertex="1">
                    <mxGeometry x="500.37" y="326.5" width="77.5" height="20" as="geometry"/>
                </mxCell>
                <mxCell id="6rfVyG7VwJOiU-eXyLlD-19" value="full_name" style="ellipse;whiteSpace=wrap;html=1;labelBackgroundColor=none;textShadow=0;shadow=0;labelBorderColor=none;" parent="1" vertex="1">
                    <mxGeometry x="668.87" y="29.75" width="65" height="30" as="geometry"/>
                </mxCell>
                <mxCell id="6rfVyG7VwJOiU-eXyLlD-20" value="" style="endArrow=none;html=1;rounded=0;exitX=0.53;exitY=-0.003;exitDx=0;exitDy=0;exitPerimeter=0;entryX=0.5;entryY=1;entryDx=0;entryDy=0;labelBackgroundColor=none;textShadow=0;fontColor=#000000;shadow=0;labelBorderColor=none;" parent="1" source="luQNtdRatxjwP468r3o8-7" target="6rfVyG7VwJOiU-eXyLlD-19" edge="1">
                    <mxGeometry width="50" height="50" relative="1" as="geometry">
                        <mxPoint x="698.5" y="125.75" as="sourcePoint"/>
                        <mxPoint x="644.5" y="65.75" as="targetPoint"/>
                    </mxGeometry>
                </mxCell>
                <mxCell id="6rfVyG7VwJOiU-eXyLlD-23" value="updated_at" style="ellipse;whiteSpace=wrap;html=1;labelBackgroundColor=none;textShadow=0;shadow=0;labelBorderColor=none;" parent="1" vertex="1">
                    <mxGeometry x="492.87" y="380.75" width="85" height="30" as="geometry"/>
                </mxCell>
                <mxCell id="6rfVyG7VwJOiU-eXyLlD-24" value="" style="endArrow=none;html=1;rounded=0;entryX=0;entryY=0.25;entryDx=0;entryDy=0;exitX=0.921;exitY=0.771;exitDx=0;exitDy=0;exitPerimeter=0;labelBackgroundColor=none;textShadow=0;fontColor=#000000;shadow=0;labelBorderColor=none;" parent="1" source="6rfVyG7VwJOiU-eXyLlD-23" target="luQNtdRatxjwP468r3o8-1" edge="1">
                    <mxGeometry width="50" height="50" relative="1" as="geometry">
                        <mxPoint x="527.5" y="404" as="sourcePoint"/>
                        <mxPoint x="569.5" y="426" as="targetPoint"/>
                    </mxGeometry>
                </mxCell>
                <mxCell id="6rfVyG7VwJOiU-eXyLlD-25" value="" style="endArrow=none;html=1;rounded=0;entryX=-0.001;entryY=0.622;entryDx=0;entryDy=0;exitX=1;exitY=0.5;exitDx=0;exitDy=0;entryPerimeter=0;labelBackgroundColor=none;textShadow=0;fontColor=#000000;shadow=0;labelBorderColor=none;" parent="1" source="6rfVyG7VwJOiU-eXyLlD-1" target="luQNtdRatxjwP468r3o8-1" edge="1">
                    <mxGeometry width="50" height="50" relative="1" as="geometry">
                        <mxPoint x="512" y="481.5" as="sourcePoint"/>
                        <mxPoint x="562" y="431.5" as="targetPoint"/>
                    </mxGeometry>
                </mxCell>
                <mxCell id="kxQEDlrHDEhXuMKwreyZ-1" value="" style="endArrow=none;html=1;rounded=0;entryX=0;entryY=0.5;entryDx=0;entryDy=0;exitX=1;exitY=0.5;exitDx=0;exitDy=0;labelBackgroundColor=none;textShadow=0;fontColor=#000000;shadow=0;labelBorderColor=none;" parent="1" source="luQNtdRatxjwP468r3o8-6" target="6rfVyG7VwJOiU-eXyLlD-1" edge="1">
                    <mxGeometry width="50" height="50" relative="1" as="geometry">
                        <mxPoint x="353.88" y="461.5" as="sourcePoint"/>
                        <mxPoint x="403.88" y="411.5" as="targetPoint"/>
                    </mxGeometry>
                </mxCell>
                <mxCell id="kxQEDlrHDEhXuMKwreyZ-3" value="" style="endArrow=none;html=1;rounded=0;entryX=0.5;entryY=0;entryDx=0;entryDy=0;exitX=0.5;exitY=1;exitDx=0;exitDy=0;labelBackgroundColor=none;textShadow=0;fontColor=#000000;shadow=0;labelBorderColor=none;" parent="1" source="luQNtdRatxjwP468r3o8-7" target="6rfVyG7VwJOiU-eXyLlD-1" edge="1">
                    <mxGeometry width="50" height="50" relative="1" as="geometry">
                        <mxPoint x="467" y="484" as="sourcePoint"/>
                        <mxPoint x="477" y="451.5" as="targetPoint"/>
                        <Array as="points">
                            <mxPoint x="337" y="304"/>
                        </Array>
                    </mxGeometry>
                </mxCell>
                <mxCell id="kxQEDlrHDEhXuMKwreyZ-4" value="" style="endArrow=none;html=1;rounded=0;entryX=0.5;entryY=1;entryDx=0;entryDy=0;exitX=0.5;exitY=0;exitDx=0;exitDy=0;labelBackgroundColor=none;textShadow=0;fontColor=#000000;shadow=0;labelBorderColor=none;" parent="1" source="luQNtdRatxjwP468r3o8-4" target="6rfVyG7VwJOiU-eXyLlD-1" edge="1">
                    <mxGeometry width="50" height="50" relative="1" as="geometry">
                        <mxPoint x="409.5" y="561.5" as="sourcePoint"/>
                        <mxPoint x="459.5" y="511.5" as="targetPoint"/>
                    </mxGeometry>
                </mxCell>
                <mxCell id="kxQEDlrHDEhXuMKwreyZ-7" value="" style="endArrow=none;html=1;rounded=0;exitX=0.996;exitY=0.664;exitDx=0;exitDy=0;exitPerimeter=0;entryX=0;entryY=0.5;entryDx=0;entryDy=0;labelBackgroundColor=none;textShadow=0;fontColor=#000000;shadow=0;labelBorderColor=none;" parent="1" source="luQNtdRatxjwP468r3o8-1" target="kxQEDlrHDEhXuMKwreyZ-6" edge="1">
                    <mxGeometry width="50" height="50" relative="1" as="geometry">
                        <mxPoint x="667" y="424" as="sourcePoint"/>
                        <mxPoint x="717" y="424" as="targetPoint"/>
                        <Array as="points"/>
                    </mxGeometry>
                </mxCell>
                <mxCell id="kxQEDlrHDEhXuMKwreyZ-6" value="has" style="rhombus;whiteSpace=wrap;html=1;labelBackgroundColor=none;textShadow=0;shadow=0;labelBorderColor=none;" parent="1" vertex="1">
                    <mxGeometry x="756.76" y="389" width="40" height="35" as="geometry"/>
                </mxCell>
                <mxCell id="kxQEDlrHDEhXuMKwreyZ-8" value="uploads" style="rhombus;whiteSpace=wrap;html=1;labelBackgroundColor=none;textShadow=0;shadow=0;labelBorderColor=none;" parent="1" vertex="1">
                    <mxGeometry x="127" y="694" width="70" height="50" as="geometry"/>
                </mxCell>
                <mxCell id="kxQEDlrHDEhXuMKwreyZ-9" value="" style="endArrow=none;html=1;rounded=0;exitX=0.5;exitY=0;exitDx=0;exitDy=0;entryX=0.5;entryY=1;entryDx=0;entryDy=0;labelBackgroundColor=none;textShadow=0;fontColor=#000000;shadow=0;labelBorderColor=none;" parent="1" source="kxQEDlrHDEhXuMKwreyZ-8" target="luQNtdRatxjwP468r3o8-4" edge="1">
                    <mxGeometry width="50" height="50" relative="1" as="geometry">
                        <mxPoint x="16.379999999999995" y="681.5" as="sourcePoint"/>
                        <mxPoint x="67" y="634" as="targetPoint"/>
                    </mxGeometry>
                </mxCell>
                <mxCell id="kxQEDlrHDEhXuMKwreyZ-10" value="" style="endArrow=none;html=1;rounded=0;exitX=0.5;exitY=0;exitDx=0;exitDy=0;entryX=0.5;entryY=1;entryDx=0;entryDy=0;labelBackgroundColor=none;textShadow=0;fontColor=#000000;shadow=0;labelBorderColor=none;" parent="1" source="QuuJD2jzFq8tw_iPmlia-19" target="luQNtdRatxjwP468r3o8-14" edge="1">
                    <mxGeometry width="50" height="50" relative="1" as="geometry">
                        <mxPoint x="-113" y="924" as="sourcePoint"/>
                        <mxPoint x="-63" y="874" as="targetPoint"/>
                    </mxGeometry>
                </mxCell>
                <mxCell id="kxQEDlrHDEhXuMKwreyZ-11" value="" style="endArrow=none;html=1;rounded=0;exitX=0.5;exitY=1;exitDx=0;exitDy=0;entryX=1;entryY=0.5;entryDx=0;entryDy=0;labelBackgroundColor=none;textShadow=0;fontColor=#000000;shadow=0;labelBorderColor=none;" parent="1" source="QuuJD2jzFq8tw_iPmlia-19" target="luQNtdRatxjwP468r3o8-103" edge="1">
                    <mxGeometry width="50" height="50" relative="1" as="geometry">
                        <mxPoint x="67" y="1232.75" as="sourcePoint"/>
                        <mxPoint x="-196" y="1152.75" as="targetPoint"/>
                    </mxGeometry>
                </mxCell>
                <mxCell id="kxQEDlrHDEhXuMKwreyZ-12" value="" style="endArrow=none;html=1;rounded=0;entryX=0;entryY=1;entryDx=0;entryDy=0;exitX=1;exitY=0.5;exitDx=0;exitDy=0;labelBackgroundColor=none;textShadow=0;fontColor=#000000;shadow=0;labelBorderColor=none;" parent="1" source="QuuJD2jzFq8tw_iPmlia-11" target="luQNtdRatxjwP468r3o8-8" edge="1">
                    <mxGeometry width="50" height="50" relative="1" as="geometry">
                        <mxPoint x="447" y="829" as="sourcePoint"/>
                        <mxPoint x="497" y="779" as="targetPoint"/>
                    </mxGeometry>
                </mxCell>
                <mxCell id="kxQEDlrHDEhXuMKwreyZ-13" value="" style="endArrow=none;html=1;rounded=0;entryX=0;entryY=0.5;entryDx=0;entryDy=0;exitX=1;exitY=0.5;exitDx=0;exitDy=0;labelBackgroundColor=none;textShadow=0;fontColor=#000000;shadow=0;labelBorderColor=none;" parent="1" source="luQNtdRatxjwP468r3o8-14" target="QuuJD2jzFq8tw_iPmlia-11" edge="1">
                    <mxGeometry width="50" height="50" relative="1" as="geometry">
                        <mxPoint x="57.379999999999995" y="920" as="sourcePoint"/>
                        <mxPoint x="257.38" y="814" as="targetPoint"/>
                    </mxGeometry>
                </mxCell>
                <mxCell id="kxQEDlrHDEhXuMKwreyZ-14" value="" style="endArrow=none;html=1;rounded=0;exitX=0.5;exitY=0;exitDx=0;exitDy=0;entryX=0.5;entryY=1;entryDx=0;entryDy=0;labelBackgroundColor=none;textShadow=0;fontColor=#000000;shadow=0;labelBorderColor=none;" parent="1" source="kxQEDlrHDEhXuMKwreyZ-15" target="luQNtdRatxjwP468r3o8-10" edge="1">
                    <mxGeometry width="50" height="50" relative="1" as="geometry">
                        <mxPoint x="794.12" y="1115.25" as="sourcePoint"/>
                        <mxPoint x="1147" y="1044" as="targetPoint"/>
                        <Array as="points"/>
                    </mxGeometry>
                </mxCell>
                <mxCell id="kxQEDlrHDEhXuMKwreyZ-16" value="" style="endArrow=none;html=1;rounded=0;entryX=0;entryY=0.5;entryDx=0;entryDy=0;exitX=1;exitY=0.5;exitDx=0;exitDy=0;labelBackgroundColor=none;textShadow=0;fontColor=#000000;shadow=0;labelBorderColor=none;" parent="1" source="luQNtdRatxjwP468r3o8-11" target="kxQEDlrHDEhXuMKwreyZ-15" edge="1">
                    <mxGeometry width="50" height="50" relative="1" as="geometry">
                        <mxPoint x="609" y="1155" as="sourcePoint"/>
                        <mxPoint x="834" y="979" as="targetPoint"/>
                        <Array as="points"/>
                    </mxGeometry>
                </mxCell>
                <mxCell id="kxQEDlrHDEhXuMKwreyZ-15" value="appears_in" style="rhombus;whiteSpace=wrap;html=1;labelBackgroundColor=none;textShadow=0;shadow=0;labelBorderColor=none;" parent="1" vertex="1">
                    <mxGeometry x="803.62" y="966.26" width="78" height="74" as="geometry"/>
                </mxCell>
                <mxCell id="kxQEDlrHDEhXuMKwreyZ-20" value="first_name" style="ellipse;whiteSpace=wrap;html=1;labelBackgroundColor=none;textShadow=0;shadow=0;labelBorderColor=none;" parent="1" vertex="1">
                    <mxGeometry x="134.5" y="287.5" width="68.5" height="39" as="geometry"/>
                </mxCell>
                <mxCell id="kxQEDlrHDEhXuMKwreyZ-21" value="last_name" style="ellipse;whiteSpace=wrap;html=1;labelBackgroundColor=none;textShadow=0;shadow=0;labelBorderColor=none;" parent="1" vertex="1">
                    <mxGeometry x="229.5" y="270" width="68.5" height="39" as="geometry"/>
                </mxCell>
                <mxCell id="kxQEDlrHDEhXuMKwreyZ-22" value="" style="endArrow=none;html=1;rounded=0;entryX=0;entryY=1;entryDx=0;entryDy=0;exitX=0;exitY=0;exitDx=0;exitDy=0;labelBackgroundColor=none;textShadow=0;fontColor=#000000;shadow=0;labelBorderColor=none;" parent="1" source="luQNtdRatxjwP468r3o8-57" target="kxQEDlrHDEhXuMKwreyZ-21" edge="1">
                    <mxGeometry width="50" height="50" relative="1" as="geometry">
                        <mxPoint x="211" y="359" as="sourcePoint"/>
                        <mxPoint x="261" y="309" as="targetPoint"/>
                    </mxGeometry>
                </mxCell>
                <mxCell id="kxQEDlrHDEhXuMKwreyZ-23" value="" style="endArrow=none;html=1;rounded=0;exitX=0;exitY=0;exitDx=0;exitDy=0;entryX=1;entryY=0.5;entryDx=0;entryDy=0;labelBackgroundColor=none;textShadow=0;fontColor=#000000;shadow=0;labelBorderColor=none;" parent="1" source="luQNtdRatxjwP468r3o8-57" target="kxQEDlrHDEhXuMKwreyZ-20" edge="1">
                    <mxGeometry width="50" height="50" relative="1" as="geometry">
                        <mxPoint x="134.5" y="376.5" as="sourcePoint"/>
                        <mxPoint x="184.5" y="326.5" as="targetPoint"/>
                    </mxGeometry>
                </mxCell>
                <mxCell id="kxQEDlrHDEhXuMKwreyZ-24" value="first_name" style="ellipse;whiteSpace=wrap;html=1;labelBackgroundColor=none;textShadow=0;shadow=0;labelBorderColor=none;" parent="1" vertex="1">
                    <mxGeometry x="584.5" y="-9.25" width="68.5" height="39" as="geometry"/>
                </mxCell>
                <mxCell id="kxQEDlrHDEhXuMKwreyZ-25" value="last_name" style="ellipse;whiteSpace=wrap;html=1;labelBackgroundColor=none;textShadow=0;shadow=0;labelBorderColor=none;" parent="1" vertex="1">
                    <mxGeometry x="710.25" y="-20" width="68.5" height="39" as="geometry"/>
                </mxCell>
                <mxCell id="kxQEDlrHDEhXuMKwreyZ-26" value="" style="endArrow=none;html=1;rounded=0;entryX=0;entryY=1;entryDx=0;entryDy=0;exitX=0.444;exitY=0.006;exitDx=0;exitDy=0;exitPerimeter=0;labelBackgroundColor=none;textShadow=0;fontColor=#000000;shadow=0;labelBorderColor=none;" parent="1" source="6rfVyG7VwJOiU-eXyLlD-19" target="kxQEDlrHDEhXuMKwreyZ-25" edge="1">
                    <mxGeometry width="50" height="50" relative="1" as="geometry">
                        <mxPoint x="700.75" y="42" as="sourcePoint"/>
                        <mxPoint x="741.75" y="19" as="targetPoint"/>
                    </mxGeometry>
                </mxCell>
                <mxCell id="kxQEDlrHDEhXuMKwreyZ-27" value="" style="endArrow=none;html=1;rounded=0;exitX=0.441;exitY=0.001;exitDx=0;exitDy=0;entryX=1;entryY=0.5;entryDx=0;entryDy=0;exitPerimeter=0;labelBackgroundColor=none;textShadow=0;fontColor=#000000;shadow=0;labelBorderColor=none;" parent="1" source="6rfVyG7VwJOiU-eXyLlD-19" target="kxQEDlrHDEhXuMKwreyZ-24" edge="1">
                    <mxGeometry width="50" height="50" relative="1" as="geometry">
                        <mxPoint x="700.75" y="42" as="sourcePoint"/>
                        <mxPoint x="665.25" y="36.5" as="targetPoint"/>
                    </mxGeometry>
                </mxCell>
                <mxCell id="kxQEDlrHDEhXuMKwreyZ-30" value="quantity" style="ellipse;whiteSpace=wrap;html=1;labelBackgroundColor=none;textShadow=0;shadow=0;labelBorderColor=none;" parent="1" vertex="1">
                    <mxGeometry x="-167" y="995.9999999999999" width="80" height="28.38" as="geometry"/>
                </mxCell>
                <mxCell id="kxQEDlrHDEhXuMKwreyZ-31" value="" style="endArrow=none;html=1;rounded=0;exitX=0.438;exitY=-0.002;exitDx=0;exitDy=0;exitPerimeter=0;entryX=0.5;entryY=1;entryDx=0;entryDy=0;labelBackgroundColor=none;textShadow=0;fontColor=#000000;shadow=0;labelBorderColor=none;" parent="1" source="luQNtdRatxjwP468r3o8-103" target="kxQEDlrHDEhXuMKwreyZ-30" edge="1">
                    <mxGeometry width="50" height="50" relative="1" as="geometry">
                        <mxPoint x="-164" y="1109" as="sourcePoint"/>
                        <mxPoint x="-114" y="1059" as="targetPoint"/>
                    </mxGeometry>
                </mxCell>
                <mxCell id="kxQEDlrHDEhXuMKwreyZ-32" value="issue_date" style="ellipse;whiteSpace=wrap;html=1;labelBackgroundColor=none;textShadow=0;shadow=0;labelBorderColor=none;" parent="1" vertex="1">
                    <mxGeometry x="-274" y="745" width="80" height="30" as="geometry"/>
                </mxCell>
                <mxCell id="kxQEDlrHDEhXuMKwreyZ-33" value="quantity" style="ellipse;whiteSpace=wrap;html=1;labelBackgroundColor=none;textShadow=0;shadow=0;labelBorderColor=none;" parent="1" vertex="1">
                    <mxGeometry x="851.5300000000001" y="758.75" width="55.94" height="25.5" as="geometry"/>
                </mxCell>
                <mxCell id="kxQEDlrHDEhXuMKwreyZ-34" value="" style="endArrow=none;html=1;rounded=0;exitX=0.5;exitY=0;exitDx=0;exitDy=0;entryX=0.5;entryY=1;entryDx=0;entryDy=0;labelBackgroundColor=none;textShadow=0;fontColor=#000000;shadow=0;labelBorderColor=none;" parent="1" source="luQNtdRatxjwP468r3o8-10" target="gZQUNsks4zCgevMbOkbr-14" edge="1">
                    <mxGeometry width="50" height="50" relative="1" as="geometry">
                        <mxPoint x="865.44" y="830.5" as="sourcePoint"/>
                        <mxPoint x="839.44" y="796.5" as="targetPoint"/>
                    </mxGeometry>
                </mxCell>
                <mxCell id="bUjKhUwmRPjY9G_6gDiM-2" value="gender" style="ellipse;whiteSpace=wrap;html=1;labelBackgroundColor=none;textShadow=0;shadow=0;labelBorderColor=none;" parent="1" vertex="1">
                    <mxGeometry x="47.25" y="526.5" width="65" height="20.75" as="geometry"/>
                </mxCell>
                <mxCell id="bUjKhUwmRPjY9G_6gDiM-3" value="" style="endArrow=none;html=1;rounded=0;entryX=0.5;entryY=1;entryDx=0;entryDy=0;exitX=0.411;exitY=-0.006;exitDx=0;exitDy=0;exitPerimeter=0;labelBackgroundColor=none;textShadow=0;fontColor=#000000;shadow=0;labelBorderColor=none;" parent="1" source="luQNtdRatxjwP468r3o8-4" target="bUjKhUwmRPjY9G_6gDiM-2" edge="1">
                    <mxGeometry width="50" height="50" relative="1" as="geometry">
                        <mxPoint x="70" y="625.25" as="sourcePoint"/>
                        <mxPoint x="122" y="553.25" as="targetPoint"/>
                    </mxGeometry>
                </mxCell>
                <mxCell id="N-ou9A8Mk9hdDGpNwz5j-2" value="M" style="text;html=1;align=center;verticalAlign=middle;whiteSpace=wrap;rounded=0;labelBackgroundColor=none;textShadow=0;shadow=0;labelBorderColor=none;" parent="1" vertex="1">
                    <mxGeometry x="704.12" y="391.5" width="60" height="30" as="geometry"/>
                </mxCell>
                <mxCell id="N-ou9A8Mk9hdDGpNwz5j-3" value="1" style="text;html=1;align=center;verticalAlign=middle;whiteSpace=wrap;rounded=0;labelBackgroundColor=none;textShadow=0;shadow=0;labelBorderColor=none;" parent="1" vertex="1">
                    <mxGeometry x="776.26" y="367.75" width="60" height="30" as="geometry"/>
                </mxCell>
                <mxCell id="N-ou9A8Mk9hdDGpNwz5j-4" value="1" style="text;html=1;align=center;verticalAlign=middle;whiteSpace=wrap;rounded=0;labelBackgroundColor=none;textShadow=0;shadow=0;labelBorderColor=none;" parent="1" vertex="1">
                    <mxGeometry x="500.37" y="418" width="60" height="30" as="geometry"/>
                </mxCell>
                <mxCell id="N-ou9A8Mk9hdDGpNwz5j-5" value="1" style="text;html=1;align=center;verticalAlign=middle;whiteSpace=wrap;rounded=0;labelBackgroundColor=none;textShadow=0;shadow=0;labelBorderColor=none;" parent="1" vertex="1">
                    <mxGeometry x="419.75" y="459" width="60" height="30" as="geometry"/>
                </mxCell>
                <mxCell id="N-ou9A8Mk9hdDGpNwz5j-6" value="1" style="text;html=1;align=center;verticalAlign=middle;whiteSpace=wrap;rounded=0;labelBackgroundColor=none;textShadow=0;shadow=0;labelBorderColor=none;" parent="1" vertex="1">
                    <mxGeometry x="401" y="415.5" width="60" height="30" as="geometry"/>
                </mxCell>
                <mxCell id="N-ou9A8Mk9hdDGpNwz5j-7" value="1" style="text;html=1;align=center;verticalAlign=middle;whiteSpace=wrap;rounded=0;labelBackgroundColor=none;textShadow=0;shadow=0;labelBorderColor=none;" parent="1" vertex="1">
                    <mxGeometry x="440.37" y="376.5" width="60" height="30" as="geometry"/>
                </mxCell>
                <mxCell id="N-ou9A8Mk9hdDGpNwz5j-8" value="1" style="text;html=1;align=center;verticalAlign=middle;resizable=0;points=[];autosize=1;labelBackgroundColor=none;textShadow=0;shadow=0;labelBorderColor=none;" parent="1" vertex="1">
                    <mxGeometry x="21" y="950.5" width="30" height="30" as="geometry"/>
                </mxCell>
                <mxCell id="N-ou9A8Mk9hdDGpNwz5j-9" value="M" style="text;html=1;align=center;verticalAlign=middle;resizable=0;points=[];autosize=1;labelBackgroundColor=none;textShadow=0;shadow=0;labelBorderColor=none;" parent="1" vertex="1">
                    <mxGeometry x="21" y="1031.25" width="30" height="30" as="geometry"/>
                </mxCell>
                <mxCell id="N-ou9A8Mk9hdDGpNwz5j-10" value="" style="endArrow=none;html=1;rounded=0;entryX=-0.003;entryY=0.639;entryDx=0;entryDy=0;entryPerimeter=0;exitX=0.5;exitY=1;exitDx=0;exitDy=0;labelBackgroundColor=none;textShadow=0;fontColor=#000000;shadow=0;labelBorderColor=none;" parent="1" source="N-ou9A8Mk9hdDGpNwz5j-12" target="luQNtdRatxjwP468r3o8-14" edge="1">
                    <mxGeometry relative="1" as="geometry">
                        <mxPoint x="-374" y="390" as="sourcePoint"/>
                        <mxPoint x="-66.66000000000008" y="843.9970000000001" as="targetPoint"/>
                        <Array as="points">
                            <mxPoint x="-404" y="340"/>
                            <mxPoint x="-404" y="480"/>
                            <mxPoint x="-404" y="610"/>
                            <mxPoint x="-404" y="878"/>
                        </Array>
                    </mxGeometry>
                </mxCell>
                <mxCell id="N-ou9A8Mk9hdDGpNwz5j-12" value="reviews/processes" style="shape=rhombus;perimeter=rhombusPerimeter;whiteSpace=wrap;html=1;align=center;labelBackgroundColor=none;textShadow=0;shadow=0;labelBorderColor=none;" parent="1" vertex="1">
                    <mxGeometry x="-464" y="110" width="120" height="77" as="geometry"/>
                </mxCell>
                <mxCell id="N-ou9A8Mk9hdDGpNwz5j-13" value="" style="endArrow=none;html=1;rounded=0;entryX=0;entryY=0.5;entryDx=0;entryDy=0;exitX=1;exitY=0.5;exitDx=0;exitDy=0;labelBackgroundColor=none;textShadow=0;fontColor=#000000;shadow=0;labelBorderColor=none;" parent="1" source="N-ou9A8Mk9hdDGpNwz5j-12" target="luQNtdRatxjwP468r3o8-7" edge="1">
                    <mxGeometry relative="1" as="geometry">
                        <mxPoint x="17" y="143.5000000000001" as="sourcePoint"/>
                        <mxPoint x="655.5" y="148.26" as="targetPoint"/>
                    </mxGeometry>
                </mxCell>
                <mxCell id="N-ou9A8Mk9hdDGpNwz5j-14" value="1" style="text;html=1;align=center;verticalAlign=middle;resizable=0;points=[];autosize=1;labelBackgroundColor=none;textShadow=0;shadow=0;labelBorderColor=none;" parent="1" vertex="1">
                    <mxGeometry x="-344" y="114.5" width="30" height="30" as="geometry"/>
                </mxCell>
                <mxCell id="N-ou9A8Mk9hdDGpNwz5j-15" value="M" style="text;html=1;align=center;verticalAlign=middle;resizable=0;points=[];autosize=1;labelBackgroundColor=none;textShadow=0;shadow=0;labelBorderColor=none;" parent="1" vertex="1">
                    <mxGeometry x="-434" y="187" width="30" height="30" as="geometry"/>
                </mxCell>
                <mxCell id="N-ou9A8Mk9hdDGpNwz5j-16" value="1" style="text;html=1;align=center;verticalAlign=middle;resizable=0;points=[];autosize=1;labelBackgroundColor=none;textShadow=0;shadow=0;labelBorderColor=none;" parent="1" vertex="1">
                    <mxGeometry x="131" y="658" width="30" height="30" as="geometry"/>
                </mxCell>
                <mxCell id="N-ou9A8Mk9hdDGpNwz5j-17" value="M" style="text;html=1;align=center;verticalAlign=middle;resizable=0;points=[];autosize=1;labelBackgroundColor=none;textShadow=0;shadow=0;labelBorderColor=none;" parent="1" vertex="1">
                    <mxGeometry x="122" y="735.5" width="30" height="30" as="geometry"/>
                </mxCell>
                <mxCell id="N-ou9A8Mk9hdDGpNwz5j-18" value="1" style="text;html=1;align=center;verticalAlign=middle;resizable=0;points=[];autosize=1;labelBackgroundColor=none;textShadow=0;shadow=0;labelBorderColor=none;" parent="1" vertex="1">
                    <mxGeometry x="960.88" y="695" width="30" height="30" as="geometry"/>
                </mxCell>
                <mxCell id="N-ou9A8Mk9hdDGpNwz5j-19" value="M" style="text;html=1;align=center;verticalAlign=middle;resizable=0;points=[];autosize=1;labelBackgroundColor=none;textShadow=0;shadow=0;labelBorderColor=none;" parent="1" vertex="1">
                    <mxGeometry x="1041" y="768" width="30" height="30" as="geometry"/>
                </mxCell>
                <mxCell id="N-ou9A8Mk9hdDGpNwz5j-20" value="dob" style="ellipse;whiteSpace=wrap;html=1;align=center;labelBackgroundColor=none;textShadow=0;shadow=0;labelBorderColor=none;" parent="1" vertex="1">
                    <mxGeometry x="128.25" y="536.25" width="42.5" height="25.75" as="geometry"/>
                </mxCell>
                <mxCell id="N-ou9A8Mk9hdDGpNwz5j-21" value="" style="endArrow=none;html=1;rounded=0;entryX=0;entryY=1;entryDx=0;entryDy=0;exitX=0.504;exitY=-0.001;exitDx=0;exitDy=0;exitPerimeter=0;labelBackgroundColor=none;textShadow=0;fontColor=#000000;shadow=0;labelBorderColor=none;" parent="1" source="luQNtdRatxjwP468r3o8-4" target="N-ou9A8Mk9hdDGpNwz5j-20" edge="1">
                    <mxGeometry relative="1" as="geometry">
                        <mxPoint x="66" y="590" as="sourcePoint"/>
                        <mxPoint x="169" y="575.86" as="targetPoint"/>
                    </mxGeometry>
                </mxCell>
                <mxCell id="N-ou9A8Mk9hdDGpNwz5j-24" value="dosage" style="ellipse;whiteSpace=wrap;html=1;labelBackgroundColor=none;textShadow=0;shadow=0;labelBorderColor=none;" parent="1" vertex="1">
                    <mxGeometry x="-118" y="1019.14" width="66" height="35.51" as="geometry"/>
                </mxCell>
                <mxCell id="N-ou9A8Mk9hdDGpNwz5j-25" value="" style="endArrow=none;html=1;rounded=0;exitX=0.5;exitY=0;exitDx=0;exitDy=0;entryX=0;entryY=1;entryDx=0;entryDy=0;labelBackgroundColor=none;textShadow=0;fontColor=#000000;shadow=0;labelBorderColor=none;" parent="1" source="luQNtdRatxjwP468r3o8-103" target="N-ou9A8Mk9hdDGpNwz5j-24" edge="1">
                    <mxGeometry relative="1" as="geometry">
                        <mxPoint x="-177" y="1129.25" as="sourcePoint"/>
                        <mxPoint x="-166" y="1067.25" as="targetPoint"/>
                    </mxGeometry>
                </mxCell>
                <mxCell id="N-ou9A8Mk9hdDGpNwz5j-26" value="requires_prescription" style="ellipse;whiteSpace=wrap;html=1;labelBackgroundColor=none;textShadow=0;shadow=0;labelBorderColor=none;" parent="1" vertex="1">
                    <mxGeometry x="575.99" y="909.01" width="124.01" height="30.25" as="geometry"/>
                </mxCell>
                <mxCell id="N-ou9A8Mk9hdDGpNwz5j-27" value="" style="endArrow=none;html=1;rounded=0;exitX=0.356;exitY=-0.007;exitDx=0;exitDy=0;entryX=0;entryY=1;entryDx=0;entryDy=0;exitPerimeter=0;labelBackgroundColor=none;textShadow=0;fontColor=#000000;shadow=0;labelBorderColor=none;" parent="1" source="luQNtdRatxjwP468r3o8-11" target="N-ou9A8Mk9hdDGpNwz5j-26" edge="1">
                    <mxGeometry width="50" height="50" relative="1" as="geometry">
                        <mxPoint x="492" y="939.26" as="sourcePoint"/>
                        <mxPoint x="584" y="917.26" as="targetPoint"/>
                    </mxGeometry>
                </mxCell>
                <mxCell id="N-ou9A8Mk9hdDGpNwz5j-28" value="" style="endArrow=none;html=1;rounded=0;exitX=0.25;exitY=0;exitDx=0;exitDy=0;entryX=0.51;entryY=1.003;entryDx=0;entryDy=0;entryPerimeter=0;labelBackgroundColor=none;textShadow=0;fontColor=#000000;shadow=0;labelBorderColor=none;" parent="1" source="luQNtdRatxjwP468r3o8-11" target="N-ou9A8Mk9hdDGpNwz5j-30" edge="1">
                    <mxGeometry width="50" height="50" relative="1" as="geometry">
                        <mxPoint x="371" y="963.1299999999999" as="sourcePoint"/>
                        <mxPoint x="493" y="875.13" as="targetPoint"/>
                    </mxGeometry>
                </mxCell>
                <mxCell id="N-ou9A8Mk9hdDGpNwz5j-30" value="description" style="ellipse;whiteSpace=wrap;html=1;align=center;labelBackgroundColor=none;textShadow=0;shadow=0;labelBorderColor=none;" parent="1" vertex="1">
                    <mxGeometry x="363.75" y="865.01" width="83.5" height="24.5" as="geometry"/>
                </mxCell>
                <mxCell id="N-ou9A8Mk9hdDGpNwz5j-31" value="quantity_in_stock" style="ellipse;whiteSpace=wrap;html=1;align=center;labelBackgroundColor=none;textShadow=0;shadow=0;labelBorderColor=none;" parent="1" vertex="1">
                    <mxGeometry x="489.87" y="883.26" width="107.25" height="28" as="geometry"/>
                </mxCell>
                <mxCell id="N-ou9A8Mk9hdDGpNwz5j-34" value="" style="endArrow=none;html=1;rounded=0;entryX=0.5;entryY=1;entryDx=0;entryDy=0;exitX=0.348;exitY=0;exitDx=0;exitDy=0;exitPerimeter=0;labelBackgroundColor=none;textShadow=0;fontColor=#000000;shadow=0;labelBorderColor=none;" parent="1" source="luQNtdRatxjwP468r3o8-11" target="N-ou9A8Mk9hdDGpNwz5j-31" edge="1">
                    <mxGeometry relative="1" as="geometry">
                        <mxPoint x="450" y="979.01" as="sourcePoint"/>
                        <mxPoint x="553.63" y="969.26" as="targetPoint"/>
                    </mxGeometry>
                </mxCell>
                <mxCell id="N-ou9A8Mk9hdDGpNwz5j-35" value="unit_price" style="ellipse;whiteSpace=wrap;html=1;labelBackgroundColor=none;textShadow=0;shadow=0;labelBorderColor=none;" parent="1" vertex="1">
                    <mxGeometry x="312.5" y="918.76" width="64.37" height="28" as="geometry"/>
                </mxCell>
                <mxCell id="N-ou9A8Mk9hdDGpNwz5j-36" value="" style="endArrow=none;html=1;rounded=0;exitX=0.131;exitY=-0.002;exitDx=0;exitDy=0;entryX=1;entryY=1;entryDx=0;entryDy=0;exitPerimeter=0;labelBackgroundColor=none;textShadow=0;fontColor=#000000;shadow=0;labelBorderColor=none;" parent="1" source="luQNtdRatxjwP468r3o8-11" target="N-ou9A8Mk9hdDGpNwz5j-35" edge="1">
                    <mxGeometry width="50" height="50" relative="1" as="geometry">
                        <mxPoint x="410.25" y="1008.26" as="sourcePoint"/>
                        <mxPoint x="387.25" y="934.26" as="targetPoint"/>
                    </mxGeometry>
                </mxCell>
                <mxCell id="Rj9WsxO7VoqDU3k5lJJG-1" value="1" style="text;html=1;align=center;verticalAlign=middle;resizable=0;points=[];autosize=1;labelBackgroundColor=none;textShadow=0;shadow=0;labelBorderColor=none;" parent="1" vertex="1">
                    <mxGeometry x="277.87" y="790" width="30" height="30" as="geometry"/>
                </mxCell>
                <mxCell id="Rj9WsxO7VoqDU3k5lJJG-2" value="1" style="text;html=1;align=center;verticalAlign=middle;resizable=0;points=[];autosize=1;labelBackgroundColor=none;textShadow=0;shadow=0;labelBorderColor=none;" parent="1" vertex="1">
                    <mxGeometry x="376" y="775" width="30" height="30" as="geometry"/>
                </mxCell>
                <mxCell id="Rj9WsxO7VoqDU3k5lJJG-4" value="prescribing_doctor" style="ellipse;whiteSpace=wrap;html=1;labelBackgroundColor=none;textShadow=0;shadow=0;labelBorderColor=none;" parent="1" vertex="1">
                    <mxGeometry x="-118" y="705.5" width="120" height="30" as="geometry"/>
                </mxCell>
                <mxCell id="Rj9WsxO7VoqDU3k5lJJG-5" value="" style="endArrow=none;html=1;rounded=0;exitX=0.315;exitY=0.933;exitDx=0;exitDy=0;exitPerimeter=0;entryX=0.304;entryY=0.003;entryDx=0;entryDy=0;entryPerimeter=0;labelBackgroundColor=none;textShadow=0;fontColor=#000000;shadow=0;labelBorderColor=none;" parent="1" source="Rj9WsxO7VoqDU3k5lJJG-4" target="luQNtdRatxjwP468r3o8-14" edge="1">
                    <mxGeometry width="50" height="50" relative="1" as="geometry">
                        <mxPoint x="-76.5" y="749.5" as="sourcePoint"/>
                        <mxPoint x="-64" y="840" as="targetPoint"/>
                    </mxGeometry>
                </mxCell>
                <mxCell id="Rj9WsxO7VoqDU3k5lJJG-7" value="appears_in" style="shape=rhombus;perimeter=rhombusPerimeter;whiteSpace=wrap;html=1;align=center;labelBackgroundColor=none;textShadow=0;shadow=0;labelBorderColor=none;" parent="1" vertex="1">
                    <mxGeometry x="12" y="1112.75" width="90" height="75.5" as="geometry"/>
                </mxCell>
                <mxCell id="Rj9WsxO7VoqDU3k5lJJG-8" value="pharmacist_id" style="ellipse;whiteSpace=wrap;html=1;labelBackgroundColor=none;textShadow=0;shadow=0;labelBorderColor=none;" parent="1" vertex="1">
                    <mxGeometry x="-279" y="705.5" width="120" height="30" as="geometry"/>
                </mxCell>
                <mxCell id="Rj9WsxO7VoqDU3k5lJJG-10" value="" style="endArrow=none;html=1;rounded=0;exitX=0.621;exitY=0.984;exitDx=0;exitDy=0;exitPerimeter=0;entryX=0.285;entryY=-0.004;entryDx=0;entryDy=0;entryPerimeter=0;labelBackgroundColor=none;textShadow=0;fontColor=#000000;shadow=0;labelBorderColor=none;" parent="1" source="Rj9WsxO7VoqDU3k5lJJG-8" target="luQNtdRatxjwP468r3o8-14" edge="1">
                    <mxGeometry width="50" height="50" relative="1" as="geometry">
                        <mxPoint x="-128" y="706" as="sourcePoint"/>
                        <mxPoint x="-74" y="840" as="targetPoint"/>
                    </mxGeometry>
                </mxCell>
                <mxCell id="Rj9WsxO7VoqDU3k5lJJG-14" value="" style="endArrow=none;html=1;rounded=0;exitX=1;exitY=0.5;exitDx=0;exitDy=0;entryX=0;entryY=0.5;entryDx=0;entryDy=0;labelBackgroundColor=none;textShadow=0;fontColor=#000000;shadow=0;labelBorderColor=none;" parent="1" source="Rj9WsxO7VoqDU3k5lJJG-7" target="luQNtdRatxjwP468r3o8-11" edge="1">
                    <mxGeometry width="50" height="50" relative="1" as="geometry">
                        <mxPoint x="463.5" y="1238.25" as="sourcePoint"/>
                        <mxPoint x="513.5" y="1188.25" as="targetPoint"/>
                        <Array as="points"/>
                    </mxGeometry>
                </mxCell>
                <mxCell id="Rj9WsxO7VoqDU3k5lJJG-15" value="" style="endArrow=none;html=1;rounded=0;exitX=0;exitY=0.5;exitDx=0;exitDy=0;entryX=1;entryY=0.75;entryDx=0;entryDy=0;labelBackgroundColor=none;textShadow=0;fontColor=#000000;shadow=0;labelBorderColor=none;" parent="1" source="Rj9WsxO7VoqDU3k5lJJG-7" target="luQNtdRatxjwP468r3o8-103" edge="1">
                    <mxGeometry width="50" height="50" relative="1" as="geometry">
                        <mxPoint x="-23" y="939" as="sourcePoint"/>
                        <mxPoint x="116" y="1170" as="targetPoint"/>
                    </mxGeometry>
                </mxCell>
                <mxCell id="Rj9WsxO7VoqDU3k5lJJG-16" value="1" style="text;html=1;align=center;verticalAlign=middle;resizable=0;points=[];autosize=1;labelBackgroundColor=none;textShadow=0;shadow=0;labelBorderColor=none;" parent="1" vertex="1">
                    <mxGeometry x="134.5" y="1090.5" width="30" height="30" as="geometry"/>
                </mxCell>
                <mxCell id="Rj9WsxO7VoqDU3k5lJJG-18" value="M" style="text;html=1;align=center;verticalAlign=middle;resizable=0;points=[];autosize=1;labelBackgroundColor=none;textShadow=0;shadow=0;labelBorderColor=none;" parent="1" vertex="1">
                    <mxGeometry x="-28" y="1120.5" width="30" height="30" as="geometry"/>
                </mxCell>
                <mxCell id="Rj9WsxO7VoqDU3k5lJJG-19" value="places" style="shape=rhombus;perimeter=rhombusPerimeter;whiteSpace=wrap;html=1;align=center;labelBackgroundColor=none;textShadow=0;shadow=0;labelBorderColor=none;" parent="1" vertex="1">
                    <mxGeometry x="292" y="658" width="120" height="60" as="geometry"/>
                </mxCell>
                <mxCell id="Rj9WsxO7VoqDU3k5lJJG-20" value="" style="endArrow=none;html=1;rounded=0;exitX=1;exitY=0.5;exitDx=0;exitDy=0;entryX=0;entryY=0.5;entryDx=0;entryDy=0;labelBackgroundColor=none;textShadow=0;fontColor=#000000;shadow=0;labelBorderColor=none;" parent="1" source="luQNtdRatxjwP468r3o8-4" target="Rj9WsxO7VoqDU3k5lJJG-19" edge="1">
                    <mxGeometry width="50" height="50" relative="1" as="geometry">
                        <mxPoint x="203" y="658" as="sourcePoint"/>
                        <mxPoint x="253" y="608" as="targetPoint"/>
                    </mxGeometry>
                </mxCell>
                <mxCell id="Rj9WsxO7VoqDU3k5lJJG-21" value="" style="endArrow=none;html=1;rounded=0;exitX=1;exitY=0.5;exitDx=0;exitDy=0;entryX=0;entryY=0.75;entryDx=0;entryDy=0;labelBackgroundColor=none;textShadow=0;fontColor=#000000;shadow=0;labelBorderColor=none;" parent="1" source="Rj9WsxO7VoqDU3k5lJJG-19" target="luQNtdRatxjwP468r3o8-8" edge="1">
                    <mxGeometry width="50" height="50" relative="1" as="geometry">
                        <mxPoint x="457.87" y="655.5" as="sourcePoint"/>
                        <mxPoint x="623.87" y="720.5" as="targetPoint"/>
                    </mxGeometry>
                </mxCell>
                <mxCell id="Rj9WsxO7VoqDU3k5lJJG-22" value="M" style="text;html=1;align=center;verticalAlign=middle;resizable=0;points=[];autosize=1;labelBackgroundColor=none;textShadow=0;shadow=0;labelBorderColor=none;" parent="1" vertex="1">
                    <mxGeometry x="412" y="664" width="30" height="30" as="geometry"/>
                </mxCell>
                <mxCell id="Rj9WsxO7VoqDU3k5lJJG-23" value="1" style="text;html=1;align=center;verticalAlign=middle;resizable=0;points=[];autosize=1;labelBackgroundColor=none;textShadow=0;shadow=0;labelBorderColor=none;" parent="1" vertex="1">
                    <mxGeometry x="253.25" y="653.5" width="30" height="30" as="geometry"/>
                </mxCell>
                <mxCell id="Rj9WsxO7VoqDU3k5lJJG-25" value="subtotal" style="ellipse;whiteSpace=wrap;html=1;align=center;labelBackgroundColor=none;textShadow=0;shadow=0;labelBorderColor=none;" parent="1" vertex="1">
                    <mxGeometry x="934.62" y="833.01" width="69.88" height="28" as="geometry"/>
                </mxCell>
                <mxCell id="Rj9WsxO7VoqDU3k5lJJG-26" value="" style="endArrow=none;html=1;rounded=0;entryX=0;entryY=1;entryDx=0;entryDy=0;exitX=1;exitY=0.25;exitDx=0;exitDy=0;labelBackgroundColor=none;textShadow=0;fontColor=#000000;shadow=0;labelBorderColor=none;" parent="1" source="luQNtdRatxjwP468r3o8-10" target="Rj9WsxO7VoqDU3k5lJJG-25" edge="1">
                    <mxGeometry width="50" height="50" relative="1" as="geometry">
                        <mxPoint x="897.62" y="915.5" as="sourcePoint"/>
                        <mxPoint x="947.62" y="865.5" as="targetPoint"/>
                    </mxGeometry>
                </mxCell>
                <mxCell id="Rj9WsxO7VoqDU3k5lJJG-27" value="1" style="text;html=1;align=center;verticalAlign=middle;resizable=0;points=[];autosize=1;labelBackgroundColor=none;textShadow=0;shadow=0;labelBorderColor=none;" parent="1" vertex="1">
                    <mxGeometry x="766.76" y="978.01" width="30" height="30" as="geometry"/>
                </mxCell>
                <mxCell id="Rj9WsxO7VoqDU3k5lJJG-28" value="M" style="text;html=1;align=center;verticalAlign=middle;resizable=0;points=[];autosize=1;labelBackgroundColor=none;textShadow=0;shadow=0;labelBorderColor=none;" parent="1" vertex="1">
                    <mxGeometry x="814" y="936.26" width="30" height="30" as="geometry"/>
                </mxCell>
                <mxCell id="Rj9WsxO7VoqDU3k5lJJG-29" value="category" style="ellipse;whiteSpace=wrap;html=1;align=center;labelBackgroundColor=none;textShadow=0;shadow=0;labelBorderColor=none;" parent="1" vertex="1">
                    <mxGeometry x="418.5" y="900.26" width="74.37" height="27.26" as="geometry"/>
                </mxCell>
                <mxCell id="Rj9WsxO7VoqDU3k5lJJG-30" value="" style="endArrow=none;html=1;rounded=0;entryX=0.424;entryY=0.972;entryDx=0;entryDy=0;entryPerimeter=0;exitX=0.355;exitY=0.002;exitDx=0;exitDy=0;exitPerimeter=0;labelBackgroundColor=none;textShadow=0;fontColor=#000000;shadow=0;labelBorderColor=none;" parent="1" source="luQNtdRatxjwP468r3o8-11" target="Rj9WsxO7VoqDU3k5lJJG-29" edge="1">
                    <mxGeometry width="50" height="50" relative="1" as="geometry">
                        <mxPoint x="420.5" y="983.01" as="sourcePoint"/>
                        <mxPoint x="470.5" y="933.01" as="targetPoint"/>
                    </mxGeometry>
                </mxCell>
                <mxCell id="S1udHVm4Y3Ll10-SGyUz-1" value="doctor_license" style="ellipse;whiteSpace=wrap;html=1;labelBackgroundColor=none;textShadow=0;shadow=0;labelBorderColor=none;" parent="1" vertex="1">
                    <mxGeometry x="-194" y="673.5" width="100" height="30" as="geometry"/>
                </mxCell>
                <mxCell id="S1udHVm4Y3Ll10-SGyUz-2" value="" style="endArrow=none;html=1;rounded=0;exitX=0.514;exitY=1.009;exitDx=0;exitDy=0;exitPerimeter=0;entryX=0.299;entryY=0.007;entryDx=0;entryDy=0;entryPerimeter=0;labelBackgroundColor=none;textShadow=0;fontColor=#000000;shadow=0;labelBorderColor=none;" parent="1" source="S1udHVm4Y3Ll10-SGyUz-1" target="luQNtdRatxjwP468r3o8-14" edge="1">
                    <mxGeometry width="50" height="50" relative="1" as="geometry">
                        <mxPoint x="-114" y="764.75" as="sourcePoint"/>
                        <mxPoint x="-102" y="875.75" as="targetPoint"/>
                    </mxGeometry>
                </mxCell>
                <mxCell id="S1udHVm4Y3Ll10-SGyUz-4" value="" style="endArrow=none;html=1;rounded=0;exitX=1.001;exitY=0.344;exitDx=0;exitDy=0;exitPerimeter=0;entryX=0.997;entryY=0.681;entryDx=0;entryDy=0;entryPerimeter=0;labelBackgroundColor=none;textShadow=0;fontColor=#000000;shadow=0;labelBorderColor=none;" parent="1" source="luQNtdRatxjwP468r3o8-7" target="luQNtdRatxjwP468r3o8-8" edge="1">
                    <mxGeometry width="50" height="50" relative="1" as="geometry">
                        <mxPoint x="886" y="140" as="sourcePoint"/>
                        <mxPoint x="933.8947368421053" y="650" as="targetPoint"/>
                        <Array as="points">
                            <mxPoint x="1246" y="140"/>
                            <mxPoint x="1246" y="400"/>
                            <mxPoint x="1246" y="680"/>
                        </Array>
                    </mxGeometry>
                </mxCell>
                <mxCell id="S1udHVm4Y3Ll10-SGyUz-6" value="reviews/confirms" style="strokeWidth=1;html=1;shape=mxgraph.flowchart.decision;whiteSpace=wrap;labelBackgroundColor=none;textShadow=0;shadow=0;labelBorderColor=none;" parent="1" vertex="1">
                    <mxGeometry x="1176" y="404" width="140" height="100" as="geometry"/>
                </mxCell>
                <mxCell id="S1udHVm4Y3Ll10-SGyUz-8" value="1" style="text;html=1;align=center;verticalAlign=middle;resizable=0;points=[];autosize=1;labelBackgroundColor=none;textShadow=0;shadow=0;labelBorderColor=none;" parent="1" vertex="1">
                    <mxGeometry x="1241" y="367.75" width="30" height="30" as="geometry"/>
                </mxCell>
                <mxCell id="S1udHVm4Y3Ll10-SGyUz-9" value="M" style="text;html=1;align=center;verticalAlign=middle;resizable=0;points=[];autosize=1;labelBackgroundColor=none;textShadow=0;shadow=0;labelBorderColor=none;" parent="1" vertex="1">
                    <mxGeometry x="1241" y="517.25" width="30" height="30" as="geometry"/>
                </mxCell>
            </root>
        </mxGraphModel>
    </diagram>
</mxfile>